<svg width="66" height="91" viewBox="0 0 66 91" fill="none" xmlns="http://www.w3.org/2000/svg">
<rect width="66" height="90.3571" rx="5" fill="white"/>
<path d="M41.25 55.3929C40.0433 55.394 38.8511 55.1297 37.7578 54.6189C36.6645 54.1081 35.6969 53.3633 34.9234 52.4371C35.9742 54.8206 37.2215 57.1126 38.6524 59.2893C39.1969 60.1143 38.6053 61.2858 37.62 61.2858H28.38C27.3923 61.2858 26.8007 60.1143 27.3476 59.2893C28.7785 57.1126 30.0258 54.8206 31.0766 52.4371C30.1767 53.5125 29.0175 54.3408 27.7086 54.8438C26.3996 55.3468 24.9841 55.5078 23.5956 55.3117C22.2071 55.1156 20.8915 54.5688 19.7731 53.723C18.6546 52.8771 17.7702 51.7602 17.2034 50.4776C16.6366 49.195 16.4061 47.7891 16.5336 46.3926C16.6611 44.9962 17.1424 43.6552 17.9322 42.4965C18.7219 41.3378 19.794 40.3995 21.0471 39.7702C22.3002 39.1409 23.6931 38.8414 25.0941 38.9C24.7269 37.6686 24.6523 36.3685 24.8764 35.1032C25.1006 33.8379 25.6171 32.6424 26.385 31.6121C27.1529 30.5817 28.1508 29.745 29.2993 29.1686C30.4478 28.5922 31.715 28.2921 33 28.2921C34.285 28.2921 35.5522 28.5922 36.7007 29.1686C37.8491 29.745 38.8471 30.5817 39.615 31.6121C40.3828 32.6424 40.8994 33.8379 41.1235 35.1032C41.3477 36.3685 41.2731 37.6686 40.9058 38.9C42.0026 38.8546 43.0973 39.0284 44.126 39.4115C45.1547 39.7945 46.0966 40.3789 46.8966 41.1305C47.6965 41.8822 48.3384 42.7859 48.7847 43.7887C49.231 44.7916 49.4726 45.8734 49.4955 46.9708C49.5184 48.0683 49.3221 49.1592 48.9181 50.1798C48.514 51.2004 47.9103 52.1301 47.1424 52.9144C46.3745 53.6988 45.4578 54.322 44.446 54.7476C43.4342 55.1732 42.3477 55.3926 41.25 55.3929V55.3929Z" fill="black"/>
<path d="M18.54 19.3086C18.74 19.6153 18.9467 19.8619 19.16 20.0486C19.3733 20.2353 19.6467 20.3953 19.98 20.5286V20.9286C19.0467 20.8886 18.0067 20.8686 16.86 20.8686C15.98 20.8686 15.1333 20.8886 14.32 20.9286V20.5286C14.6933 20.5019 14.96 20.4619 15.12 20.4086C15.2933 20.3553 15.38 20.2619 15.38 20.1286C15.38 20.0219 15.3067 19.8553 15.16 19.6286L12.26 14.9286C11.9933 14.5019 11.7667 14.2153 11.58 14.0686C11.4067 13.9219 11.1667 13.8353 10.86 13.8086V18.8086C10.86 19.3153 10.8933 19.6819 10.96 19.9086C11.04 20.1353 11.18 20.2886 11.38 20.3686C11.58 20.4486 11.9067 20.5019 12.36 20.5286V20.9286C11.64 20.8886 10.6333 20.8686 9.34 20.8686C7.91333 20.8686 6.86 20.8886 6.18 20.9286V20.5286C6.62 20.5019 6.94 20.4486 7.14 20.3686C7.35333 20.2886 7.49333 20.1353 7.56 19.9086C7.64 19.6819 7.68 19.3153 7.68 18.8086V8.88859C7.68 8.38192 7.64 8.01525 7.56 7.78859C7.49333 7.56192 7.35333 7.40859 7.14 7.32859C6.94 7.24859 6.62 7.19525 6.18 7.16859V6.76859C6.86 6.80859 7.91333 6.82859 9.34 6.82859C10.6333 6.82859 11.64 6.80859 12.36 6.76859V7.16859C11.9067 7.19525 11.58 7.24859 11.38 7.32859C11.18 7.40859 11.04 7.56192 10.96 7.78859C10.8933 8.01525 10.86 8.38192 10.86 8.88859V13.3886C11.3933 13.3619 11.88 13.2019 12.32 12.9086C12.76 12.6153 13.26 12.1486 13.82 11.5086L15 10.0886C15.6133 9.38192 15.92 8.76192 15.92 8.22859C15.92 7.90859 15.7867 7.65525 15.52 7.46859C15.2667 7.28192 14.9067 7.17525 14.44 7.14859V6.76859C15.4133 6.80859 16.4 6.82859 17.4 6.82859C18.1733 6.82859 18.8 6.80859 19.28 6.76859V7.14859C18.2133 7.40192 17.2467 8.04192 16.38 9.06859L13.88 12.0486L18.54 19.3086Z" fill="black"/>
<path d="M47.46 70.2628C47.26 69.9562 47.0533 69.7095 46.84 69.5228C46.6267 69.3362 46.3533 69.1762 46.02 69.0428L46.02 68.6428C46.9533 68.6828 47.9933 68.7028 49.14 68.7028C50.02 68.7028 50.8667 68.6828 51.68 68.6428L51.68 69.0428C51.3067 69.0695 51.04 69.1095 50.88 69.1628C50.7067 69.2162 50.62 69.3095 50.62 69.4428C50.62 69.5495 50.6933 69.7162 50.84 69.9428L53.74 74.6428C54.0067 75.0695 54.2333 75.3562 54.42 75.5028C54.5933 75.6495 54.8333 75.7362 55.14 75.7628L55.14 70.7628C55.14 70.2562 55.1067 69.8895 55.04 69.6628C54.96 69.4362 54.82 69.2828 54.62 69.2028C54.42 69.1228 54.0933 69.0695 53.64 69.0428L53.64 68.6428C54.36 68.6828 55.3667 68.7028 56.66 68.7028C58.0867 68.7028 59.14 68.6828 59.82 68.6428L59.82 69.0428C59.38 69.0695 59.06 69.1228 58.86 69.2028C58.6467 69.2828 58.5067 69.4362 58.44 69.6628C58.36 69.8895 58.32 70.2562 58.32 70.7628L58.32 80.6828C58.32 81.1895 58.36 81.5562 58.44 81.7828C58.5067 82.0095 58.6467 82.1628 58.86 82.2428C59.06 82.3228 59.38 82.3762 59.82 82.4028L59.82 82.8028C59.14 82.7628 58.0867 82.7428 56.66 82.7428C55.3667 82.7428 54.36 82.7628 53.64 82.8028L53.64 82.4028C54.0933 82.3762 54.42 82.3228 54.62 82.2428C54.82 82.1628 54.96 82.0095 55.04 81.7828C55.1067 81.5562 55.14 81.1895 55.14 80.6828L55.14 76.1828C54.6067 76.2095 54.12 76.3695 53.68 76.6628C53.24 76.9562 52.74 77.4228 52.18 78.0628L51 79.4828C50.3867 80.1895 50.08 80.8095 50.08 81.3428C50.08 81.6628 50.2133 81.9162 50.48 82.1028C50.7333 82.2895 51.0933 82.3962 51.56 82.4228L51.56 82.8028C50.5867 82.7628 49.6 82.7428 48.6 82.7428C47.8267 82.7428 47.2 82.7628 46.72 82.8028L46.72 82.4228C47.7867 82.1695 48.7533 81.5295 49.62 80.5028L52.12 77.5228L47.46 70.2628Z" fill="black"/>
</svg>
