<svg width="86" height="99" viewBox="0 0 86 99" fill="none" xmlns="http://www.w3.org/2000/svg">
<g filter="url(#filter0_d)">
<g filter="url(#filter1_d)">
<rect x="6.5" y="4.5" width="61" height="85.36" rx="2.5" fill="#A23411" stroke="white" stroke-width="5"/>
<rect x="7.92856" y="5.9287" width="58.1429" height="82.5026" fill="#B8350C"/>
<path fill-rule="evenodd" clip-rule="evenodd" d="M39.0482 75.7064C38.665 75.8396 38.2993 75.9909 37.95 76.1605C37.5997 76.3301 37.2832 76.5188 37.0007 76.7256C36.7183 76.5188 36.4018 76.3301 36.0515 76.1605C35.7011 75.9909 35.3354 75.8396 34.9533 75.7064C35.5916 75.2472 36.2726 74.8633 37.0007 74.5531C37.7278 74.8633 38.4099 75.2472 39.0482 75.7064ZM38.5325 80.4435C38.5347 80.6246 38.5106 80.8248 38.4581 81.0449C38.4055 81.2658 38.3256 81.466 38.2161 81.648C38.1088 81.8292 37.9522 81.9855 37.7497 82.1154C37.5471 82.2453 37.2964 82.3107 37.0007 82.3107C36.704 82.3107 36.4544 82.2453 36.2518 82.1154C36.0493 81.9855 35.8938 81.8292 35.7843 81.648C35.6759 81.466 35.5949 81.2658 35.5434 81.0449C35.4909 80.8248 35.4657 80.6246 35.4679 80.4435C35.4854 79.176 36.0077 78.1212 37.0007 77.2683C37.9938 78.1477 38.5161 79.2017 38.5325 80.4435ZM60.5348 75.4813C60.444 75.047 60.1834 74.6987 59.7553 74.4348C59.3282 74.1709 58.875 74.0658 58.391 74.1188C58.2519 74.1345 58.0899 74.1585 57.9016 74.1916C57.8446 74.2023 57.7976 74.2131 57.7592 74.2247C57.5052 74.2735 57.318 74.4456 57.318 74.6524C57.318 74.8964 57.5797 75.0933 57.9027 75.0933C58.2257 75.0933 58.4863 74.8964 58.4863 74.6524C58.4863 74.5068 58.3932 74.3786 58.2498 74.2975C58.8509 74.2644 59.2932 74.3678 59.5779 74.6127C59.902 74.889 60.0991 75.1926 60.167 75.5252C60.2732 76.0356 60.1002 76.508 59.6425 76.939C59.1837 77.3701 58.3439 77.6538 57.1297 77.7763C55.6285 77.9268 54.2763 77.7713 53.0982 77.3204C51.9201 76.8687 50.731 76.3508 49.5353 75.7651C48.3408 75.1794 47.0663 74.6474 45.7119 74.1643C44.3564 73.6811 42.749 73.4685 40.8614 73.5066C40.211 73.519 39.5607 73.6001 38.9092 73.749C38.2577 73.8971 37.6227 74.0873 37.0007 74.3206C36.3788 74.0882 35.7427 73.8971 35.0912 73.749C34.4408 73.6001 33.7905 73.519 33.139 73.5066C31.8689 73.4809 30.7313 73.5752 29.7174 73.7961C28.7013 74.017 27.7695 74.2975 26.9199 74.6425C26.0691 74.9874 25.2512 75.3614 24.4651 75.7651C23.6789 76.1696 22.8971 76.537 22.1209 76.8687C21.3435 77.2005 20.5245 77.4602 19.665 77.6464C18.8065 77.8325 17.8726 77.8764 16.8718 77.7763C15.6565 77.6538 14.8178 77.3709 14.359 76.939C13.9013 76.508 13.7283 76.0356 13.8345 75.5252C13.9024 75.1926 14.0995 74.889 14.4225 74.6127C14.7028 74.3728 15.1331 74.2685 15.7156 74.2958C15.57 74.3761 15.4758 74.506 15.4758 74.6524C15.4758 74.8964 15.7375 75.0933 16.0594 75.0933C16.3824 75.0933 16.6441 74.8964 16.6441 74.6524C16.6441 74.482 16.516 74.3339 16.3288 74.2602C16.2871 74.2346 16.2116 74.2114 16.0999 74.1916C15.9116 74.1585 15.7484 74.1345 15.6105 74.1188C15.1254 74.0658 14.6721 74.1709 14.2451 74.4348C13.8181 74.6987 13.5575 75.047 13.4655 75.4813C13.3418 76.0679 13.528 76.6023 14.0316 77.0788C14.5353 77.5545 15.4703 77.8697 16.8313 78.0071C18.4419 78.1684 19.9047 78.022 21.1902 77.5769C22.4767 77.1326 23.7282 76.6164 24.9403 76.0282C26.1523 75.4408 27.3918 74.9031 28.6608 74.4141C29.9298 73.9244 31.3948 73.7035 33.0788 73.7382C34.3861 73.7647 35.6003 73.9955 36.7412 74.4365C35.9792 74.7723 35.296 75.1678 34.6916 75.6261C34.2394 75.4913 33.762 75.387 33.2583 75.3126C32.7547 75.2389 32.2433 75.1943 31.72 75.1802C30.8134 75.1562 30.0163 75.2257 29.3232 75.3928C28.6279 75.5599 28.0498 75.7858 27.5845 76.0745C27.1191 76.3632 26.7534 76.6942 26.4863 77.0689C26.2202 77.4445 26.0691 77.8118 26.0341 78.1725C25.9925 78.611 26.1271 78.9949 26.4414 79.3225C26.7567 79.6492 26.9538 79.8147 27.0261 79.818C27.0983 79.8213 27.1356 79.8097 27.1378 79.7849C27.1421 79.7328 27.002 79.564 26.7184 79.2778C26.4348 78.9915 26.3155 78.6284 26.356 78.1899C26.4282 77.4156 26.9626 76.7719 27.9403 76.2466C28.9192 75.7221 30.2013 75.4896 31.8087 75.5326C32.8215 75.5591 33.6744 75.6774 34.3708 75.8933C33.6908 76.4534 33.1138 77.0888 32.6397 77.8027C32.1678 78.5167 31.8152 79.3489 31.5886 80.3003C31.6225 80.3524 31.6773 80.3541 31.7517 80.3045C32.0879 79.3299 32.5094 78.4927 33.0153 77.792C33.5222 77.0904 34.0773 76.4848 34.685 75.9752C35.0682 76.1084 35.4252 76.2606 35.7591 76.4302C36.092 76.6007 36.3996 76.7893 36.6821 76.9969C35.619 77.8474 35.0562 79.004 35.0299 80.4782C35.0266 80.7115 35.0496 80.963 35.1 81.236C35.1503 81.5074 35.2478 81.7729 35.3923 82.0327C35.5368 82.2925 35.7383 82.5076 35.9967 82.6771C36.2562 82.8459 36.5901 82.9311 37.0007 82.9311C37.4102 82.9311 37.7453 82.8459 38.0037 82.6771C38.2632 82.5076 38.4646 82.2925 38.6092 82.0327C38.7526 81.7729 38.8501 81.5074 38.9004 81.236C38.9519 80.963 38.9749 80.7115 38.9716 80.4782C38.9453 79.004 38.3825 77.8474 37.3194 76.9969C37.6019 76.7893 37.9095 76.6007 38.2424 76.4302C38.5741 76.2606 38.9333 76.1084 39.3165 75.9752C39.9242 76.4848 40.4804 77.0896 40.9862 77.792C41.491 78.4927 41.9136 79.3299 42.2487 80.3045C42.2881 80.3549 42.3428 80.3541 42.4129 80.3003C42.1863 79.3489 41.8337 78.5167 41.3607 77.8027C40.8877 77.0888 40.3096 76.4534 39.6296 75.8933C40.3271 75.6774 41.1789 75.5591 42.1928 75.5326C43.8002 75.4896 45.0823 75.7221 46.0601 76.2466C47.0378 76.7719 47.5732 77.4156 47.6455 78.1899C47.686 78.6284 47.5656 78.9915 47.2831 79.2778C46.9995 79.564 46.8583 79.7328 46.8637 79.7849C46.8659 79.8097 46.9032 79.8213 46.9754 79.818C47.0477 79.8147 47.2437 79.6492 47.559 79.3225C47.8743 78.9949 48.009 78.611 47.9674 78.1725C47.9324 77.8118 47.7813 77.4445 47.5141 77.0689C47.2481 76.6942 46.8813 76.3632 46.4159 76.0745C45.9528 75.7858 45.3714 75.5599 44.6783 75.3928C43.9841 75.2257 43.187 75.1562 42.2804 75.1802C41.7581 75.1943 41.2457 75.2389 40.7421 75.3126C40.2384 75.387 39.761 75.4913 39.3088 75.6261C38.7055 75.1678 38.0223 74.7723 37.2602 74.4365C38.4011 73.9955 39.6154 73.7639 40.9216 73.7382C42.6067 73.7035 44.0706 73.9244 45.3407 74.4141C46.6097 74.9031 47.8492 75.4408 49.0612 76.0282C50.2733 76.6164 51.5248 77.1326 52.8102 77.5769C54.0957 78.022 55.5585 78.1684 57.1702 78.0071C58.5301 77.8697 59.4651 77.5545 59.9688 77.0788C60.4724 76.6023 60.6575 76.0679 60.5348 75.4813Z" fill="#FFCA0D"/>
<path fill-rule="evenodd" clip-rule="evenodd" d="M34.9518 57.9406C35.335 57.8074 35.7007 57.656 36.05 57.4864C36.4003 57.3168 36.7168 57.1282 36.9993 56.9214C37.2817 57.1282 37.5982 57.3168 37.9485 57.4864C38.2989 57.656 38.6646 57.8074 39.0467 57.9406C38.4084 58.3997 37.7274 58.7836 36.9993 59.0938C36.2722 58.7836 35.5901 58.3997 34.9518 57.9406ZM35.4675 53.2035C35.4653 53.0223 35.4894 52.8221 35.5419 52.6021C35.5945 52.3812 35.6744 52.181 35.7839 51.999C35.8912 51.8178 36.0478 51.6614 36.2503 51.5315C36.4529 51.4017 36.7036 51.3363 36.9993 51.3363C37.296 51.3363 37.5456 51.4017 37.7482 51.5315C37.9507 51.6614 38.1062 51.8178 38.2157 51.999C38.3241 52.181 38.4051 52.3812 38.4566 52.6021C38.5091 52.8221 38.5343 53.0223 38.5321 53.2035C38.5146 54.4709 37.9923 55.5257 36.9993 56.3787C36.0062 55.4992 35.4839 54.4453 35.4675 53.2035ZM13.4652 58.1656C13.556 58.6 13.8166 58.9482 14.2447 59.2121C14.6718 59.4761 15.125 59.5811 15.609 59.5282C15.7481 59.5125 15.9101 59.4885 16.0984 59.4554C16.1554 59.4446 16.2024 59.4339 16.2408 59.4223C16.4948 59.3735 16.682 59.2014 16.682 58.9946C16.682 58.7505 16.4203 58.5536 16.0973 58.5536C15.7743 58.5536 15.5137 58.7505 15.5137 58.9946C15.5137 59.1402 15.6068 59.2684 15.7502 59.3495C15.1491 59.3826 14.7068 59.2792 14.4221 59.0343C14.098 58.758 13.9009 58.4543 13.833 58.1218C13.7268 57.6113 13.8998 57.1389 14.3575 56.7079C14.8163 56.2769 15.6561 55.9931 16.8703 55.8707C18.3715 55.7201 19.7237 55.8757 20.9018 56.3265C22.0799 56.7782 23.269 57.2961 24.4647 57.8819C25.6592 58.4676 26.9337 58.9995 28.2881 59.4827C29.6436 59.9658 31.251 60.1784 33.1386 60.1404C33.789 60.128 34.4393 60.0469 35.0908 59.898C35.7423 59.7499 36.3773 59.5596 36.9993 59.3263C37.6212 59.5588 38.2573 59.7499 38.9088 59.898C39.5592 60.0469 40.2095 60.128 40.861 60.1404C42.1311 60.166 43.2687 60.0717 44.2826 59.8508C45.2987 59.6299 46.2305 59.3495 47.0801 59.0045C47.9309 58.6595 48.7488 58.2856 49.5349 57.8819C50.3211 57.4773 51.1029 57.11 51.8791 56.7782C52.6565 56.4465 53.4755 56.1867 54.335 56.0006C55.1935 55.8144 56.1274 55.7706 57.1282 55.8707C58.3435 55.9931 59.1822 56.2761 59.641 56.7079C60.0987 57.1389 60.2717 57.6113 60.1655 58.1218C60.0976 58.4543 59.9005 58.758 59.5775 59.0343C59.2972 59.2742 58.8669 59.3784 58.2844 59.3511C58.43 59.2709 58.5242 59.141 58.5242 58.9946C58.5242 58.7505 58.2625 58.5536 57.9406 58.5536C57.6176 58.5536 57.3559 58.7505 57.3559 58.9946C57.3559 59.165 57.484 59.3131 57.6712 59.3867C57.7129 59.4124 57.7884 59.4355 57.9001 59.4554C58.0884 59.4885 58.2516 59.5125 58.3895 59.5282C58.8746 59.5811 59.3279 59.4761 59.7549 59.2121C60.1819 58.9482 60.4425 58.5999 60.5345 58.1656C60.6582 57.5791 60.472 57.0446 59.9684 56.5681C59.4647 56.0924 58.5297 55.7772 57.1687 55.6399C55.5581 55.4786 54.0953 55.625 52.8098 56.0701C51.5233 56.5143 50.2718 57.0306 49.0597 57.6188C47.8477 58.2062 46.6082 58.7439 45.3392 59.2328C44.0702 59.7226 42.6052 59.9435 40.9212 59.9087C39.6139 59.8823 38.3997 59.6514 37.2588 59.2105C38.0208 58.8746 38.704 58.4792 39.3084 58.0208C39.7606 58.1557 40.238 58.2599 40.7417 58.3344C41.2453 58.408 41.7567 58.4527 42.28 58.4668C43.1866 58.4907 43.9837 58.4213 44.6768 58.2541C45.3721 58.087 45.9502 57.8612 46.4155 57.5724C46.8809 57.2837 47.2466 56.9528 47.5137 56.578C47.7798 56.2024 47.9309 55.8351 47.9659 55.4744C48.0075 55.036 47.8729 54.6521 47.5586 54.3245C47.2433 53.9977 47.0462 53.8322 46.9739 53.8289C46.9017 53.8256 46.8644 53.8372 46.8622 53.862C46.8579 53.9141 46.998 54.0829 47.2816 54.3692C47.5652 54.6554 47.6845 55.0186 47.644 55.4571C47.5718 56.2314 47.0374 56.875 46.0597 57.4004C45.0808 57.9249 43.7987 58.1573 42.1913 58.1143C41.1785 58.0879 40.3256 57.9695 39.6292 57.7536C40.3092 57.1935 40.8862 56.5582 41.3603 55.8442C41.8322 55.1303 42.1848 54.298 42.4114 53.3466C42.3775 53.2945 42.3227 53.2928 42.2483 53.3425C41.9121 54.317 41.4906 55.1543 40.9847 55.855C40.4778 56.5565 39.9227 57.1621 39.315 57.6717C38.9318 57.5385 38.5748 57.3863 38.2409 57.2167C37.908 57.0463 37.6004 56.8577 37.3179 56.65C38.381 55.7996 38.9438 54.643 38.9701 53.1688C38.9734 52.9355 38.9504 52.684 38.9 52.411C38.8497 52.1396 38.7522 51.874 38.6077 51.6143C38.4632 51.3545 38.2617 51.1394 38.0033 50.9698C37.7438 50.801 37.4098 50.7158 36.9993 50.7158C36.5898 50.7158 36.2547 50.801 35.9963 50.9698C35.7368 51.1394 35.5354 51.3545 35.3908 51.6143C35.2474 51.874 35.1499 52.1396 35.0996 52.411C35.0481 52.684 35.0251 52.9355 35.0284 53.1688C35.0547 54.643 35.6175 55.7996 36.6806 56.65C36.3981 56.8577 36.0905 57.0463 35.7576 57.2167C35.4259 57.3863 35.0667 57.5385 34.6835 57.6717C34.0758 57.1621 33.5196 56.5574 33.0138 55.855C32.509 55.1543 32.0864 54.317 31.7513 53.3425C31.7119 53.292 31.6572 53.2928 31.5871 53.3466C31.8137 54.298 32.1663 55.1303 32.6393 55.8442C33.1123 56.5582 33.6904 57.1935 34.3704 57.7536C33.6729 57.9695 32.8211 58.0879 31.8072 58.1143C30.1998 58.1573 28.9177 57.9249 27.9399 57.4004C26.9622 56.875 26.4268 56.2314 26.3545 55.4571C26.314 55.0186 26.4344 54.6554 26.7169 54.3692C27.0005 54.0829 27.1417 53.9141 27.1363 53.862C27.1341 53.8372 27.0968 53.8256 27.0246 53.8289C26.9523 53.8322 26.7563 53.9977 26.441 54.3245C26.1257 54.6521 25.991 55.036 26.0326 55.4744C26.0676 55.8351 26.2187 56.2024 26.4859 56.578C26.7519 56.9528 27.1187 57.2837 27.5841 57.5724C28.0472 57.8612 28.6286 58.087 29.3217 58.2541C30.0159 58.4213 30.813 58.4907 31.7196 58.4668C32.2419 58.4527 32.7543 58.408 33.2579 58.3344C33.7616 58.2599 34.239 58.1557 34.6912 58.0208C35.2945 58.4792 35.9777 58.8746 36.7398 59.2105C35.5989 59.6514 34.3846 59.8831 33.0784 59.9087C31.3933 59.9435 29.9294 59.7226 28.6593 59.2328C27.3903 58.7439 26.1508 58.2062 24.9388 57.6188C23.7267 57.0306 22.4752 56.5143 21.1898 56.0701C19.9043 55.625 18.4415 55.4786 16.8298 55.6399C15.4699 55.7772 14.5349 56.0924 14.0312 56.5681C13.5276 57.0446 13.3425 57.5791 13.4652 58.1656Z" fill="#FFCA0D"/>
<path fill-rule="evenodd" clip-rule="evenodd" d="M39.0482 36.4194C38.665 36.5526 38.2993 36.704 37.95 36.8736C37.5997 37.0432 37.2832 37.2318 37.0007 37.4386C36.7183 37.2318 36.4018 37.0432 36.0515 36.8736C35.7011 36.704 35.3354 36.5526 34.9533 36.4194C35.5916 35.9603 36.2726 35.5764 37.0007 35.2662C37.7278 35.5764 38.4099 35.9603 39.0482 36.4194ZM38.5325 41.1565C38.5347 41.3377 38.5106 41.5379 38.4581 41.7579C38.4055 41.9788 38.3256 42.179 38.2161 42.361C38.1088 42.5422 37.9522 42.6986 37.7497 42.8285C37.5471 42.9583 37.2964 43.0237 37.0007 43.0237C36.704 43.0237 36.4544 42.9583 36.2518 42.8285C36.0493 42.6986 35.8938 42.5422 35.7843 42.361C35.6759 42.179 35.5949 41.9788 35.5434 41.7579C35.4909 41.5379 35.4657 41.3377 35.4679 41.1565C35.4854 39.8891 36.0077 38.8343 37.0007 37.9813C37.9938 38.8608 38.5161 39.9147 38.5325 41.1565ZM60.5348 36.1944C60.444 35.76 60.1834 35.4118 59.7553 35.1479C59.3282 34.8839 58.875 34.7789 58.391 34.8318C58.2519 34.8475 58.0899 34.8715 57.9016 34.9046C57.8446 34.9154 57.7976 34.9261 57.7592 34.9377C57.5052 34.9865 57.318 35.1586 57.318 35.3654C57.318 35.6095 57.5797 35.8064 57.9027 35.8064C58.2257 35.8064 58.4863 35.6095 58.4863 35.3654C58.4863 35.2198 58.3932 35.0916 58.2498 35.0105C58.8509 34.9774 59.2932 35.0808 59.5779 35.3257C59.902 35.602 60.0991 35.9057 60.167 36.2382C60.2732 36.7487 60.1002 37.2211 59.6425 37.6521C59.1837 38.0831 58.3439 38.3669 57.1297 38.4893C55.6285 38.6399 54.2763 38.4843 53.0982 38.0335C51.9201 37.5818 50.731 37.0639 49.5353 36.4781C48.3408 35.8924 47.0663 35.3605 45.7119 34.8773C44.3564 34.3942 42.749 34.1816 40.8614 34.2196C40.211 34.232 39.5607 34.3131 38.9092 34.462C38.2577 34.6101 37.6227 34.8004 37.0007 35.0337C36.3788 34.8012 35.7427 34.6101 35.0912 34.462C34.4408 34.3131 33.7905 34.232 33.139 34.2196C31.8689 34.194 30.7313 34.2883 29.7174 34.5092C28.7013 34.7301 27.7695 35.0105 26.9199 35.3555C26.0691 35.7005 25.2512 36.0744 24.4651 36.4781C23.6789 36.8827 22.8971 37.25 22.1209 37.5818C21.3435 37.9135 20.5245 38.1733 19.665 38.3594C18.8065 38.5456 17.8726 38.5894 16.8718 38.4893C15.6565 38.3669 14.8178 38.0839 14.359 37.6521C13.9013 37.2211 13.7283 36.7487 13.8345 36.2382C13.9024 35.9057 14.0995 35.602 14.4225 35.3257C14.7028 35.0858 15.1331 34.9816 15.7156 35.0089C15.57 35.0891 15.4758 35.219 15.4758 35.3654C15.4758 35.6095 15.7375 35.8064 16.0594 35.8064C16.3824 35.8064 16.6441 35.6095 16.6441 35.3654C16.6441 35.195 16.516 35.0469 16.3288 34.9733C16.2871 34.9476 16.2116 34.9245 16.0999 34.9046C15.9116 34.8715 15.7484 34.8475 15.6105 34.8318C15.1254 34.7789 14.6721 34.8839 14.2451 35.1479C13.8181 35.4118 13.5575 35.76 13.4655 36.1944C13.3418 36.7809 13.528 37.3154 14.0316 37.7919C14.5353 38.2676 15.4703 38.5828 16.8313 38.7201C18.4419 38.8814 19.9047 38.735 21.1902 38.2899C22.4767 37.8457 23.7282 37.3294 24.9403 36.7412C26.1523 36.1538 27.3918 35.6161 28.6608 35.1272C29.9298 34.6374 31.3948 34.4165 33.0788 34.4513C34.3861 34.4777 35.6003 34.7086 36.7412 35.1495C35.9792 35.4854 35.296 35.8808 34.6916 36.3392C34.2394 36.2043 33.762 36.1001 33.2583 36.0256C32.7547 35.952 32.2433 35.9073 31.72 35.8932C30.8134 35.8693 30.0163 35.9387 29.3232 36.1059C28.6279 36.273 28.0498 36.4988 27.5845 36.7875C27.1191 37.0763 26.7534 37.4072 26.4863 37.782C26.2202 38.1575 26.0691 38.5249 26.0341 38.8856C25.9925 39.324 26.1271 39.7079 26.4414 40.0355C26.7567 40.3623 26.9538 40.5277 27.0261 40.5311C27.0983 40.5344 27.1356 40.5228 27.1378 40.498C27.1421 40.4458 27.002 40.2771 26.7184 39.9908C26.4348 39.7046 26.3155 39.3414 26.356 38.9029C26.4282 38.1286 26.9626 37.485 27.9403 36.9596C28.9192 36.4351 30.2013 36.2027 31.8087 36.2457C32.8215 36.2721 33.6744 36.3904 34.3708 36.6064C33.6908 37.1665 33.1138 37.8018 32.6397 38.5158C32.1678 39.2297 31.8152 40.062 31.5886 41.0134C31.6225 41.0655 31.6773 41.0671 31.7517 41.0175C32.0879 40.043 32.5094 39.2057 33.0153 38.505C33.5222 37.8035 34.0773 37.1979 34.685 36.6883C35.0682 36.8215 35.4252 36.9737 35.7591 37.1433C36.092 37.3137 36.3996 37.5023 36.6821 37.71C35.619 38.5604 35.0562 39.717 35.0299 41.1912C35.0266 41.4245 35.0496 41.676 35.1 41.949C35.1503 42.2204 35.2478 42.486 35.3923 42.7457C35.5368 43.0055 35.7383 43.2206 35.9967 43.3902C36.2562 43.559 36.5901 43.6442 37.0007 43.6442C37.4102 43.6442 37.7453 43.559 38.0037 43.3902C38.2632 43.2206 38.4646 43.0055 38.6092 42.7457C38.7526 42.486 38.8501 42.2204 38.9004 41.949C38.9519 41.676 38.9749 41.4245 38.9716 41.1912C38.9453 39.717 38.3825 38.5604 37.3194 37.71C37.6019 37.5023 37.9095 37.3137 38.2424 37.1433C38.5741 36.9737 38.9333 36.8215 39.3165 36.6883C39.9242 37.1979 40.4804 37.8026 40.9862 38.505C41.491 39.2057 41.9136 40.043 42.2487 41.0175C42.2881 41.068 42.3428 41.0671 42.4129 41.0134C42.1863 40.062 41.8337 39.2297 41.3607 38.5158C40.8877 37.8018 40.3096 37.1665 39.6296 36.6064C40.3271 36.3904 41.1789 36.2721 42.1928 36.2457C43.8002 36.2027 45.0823 36.4351 46.0601 36.9596C47.0378 37.485 47.5732 38.1286 47.6455 38.9029C47.686 39.3414 47.5656 39.7046 47.2831 39.9908C46.9995 40.2771 46.8583 40.4458 46.8637 40.498C46.8659 40.5228 46.9032 40.5344 46.9754 40.5311C47.0477 40.5277 47.2437 40.3623 47.559 40.0355C47.8743 39.7079 48.009 39.324 47.9674 38.8856C47.9324 38.5249 47.7813 38.1575 47.5141 37.782C47.2481 37.4072 46.8813 37.0763 46.4159 36.7875C45.9528 36.4988 45.3714 36.273 44.6783 36.1059C43.9841 35.9387 43.187 35.8693 42.2804 35.8932C41.7581 35.9073 41.2457 35.952 40.7421 36.0256C40.2384 36.1001 39.761 36.2043 39.3088 36.3392C38.7055 35.8808 38.0223 35.4854 37.2602 35.1495C38.4011 34.7086 39.6154 34.4769 40.9216 34.4513C42.6067 34.4165 44.0706 34.6374 45.3407 35.1272C46.6097 35.6161 47.8492 36.1538 49.0612 36.7412C50.2733 37.3294 51.5248 37.8457 52.8102 38.2899C54.0957 38.735 55.5585 38.8814 57.1702 38.7201C58.5301 38.5828 59.4651 38.2676 59.9688 37.7919C60.4724 37.3154 60.6575 36.7809 60.5348 36.1944Z" fill="#FFCA0D"/>
<path fill-rule="evenodd" clip-rule="evenodd" d="M34.9518 18.6536C35.335 18.5204 35.7007 18.3691 36.05 18.1995C36.4003 18.0299 36.7168 17.8412 36.9993 17.6344C37.2817 17.8412 37.5982 18.0299 37.9485 18.1995C38.2989 18.3691 38.6646 18.5204 39.0467 18.6536C38.4084 19.1128 37.7274 19.4967 36.9993 19.8069C36.2722 19.4967 35.5901 19.1128 34.9518 18.6536ZM35.4675 13.9165C35.4653 13.7354 35.4894 13.5352 35.5419 13.3151C35.5945 13.0942 35.6744 12.894 35.7839 12.712C35.8912 12.5308 36.0478 12.3745 36.2503 12.2446C36.4529 12.1147 36.7036 12.0493 36.9993 12.0493C37.296 12.0493 37.5456 12.1147 37.7482 12.2446C37.9507 12.3745 38.1062 12.5308 38.2157 12.712C38.3241 12.894 38.4051 13.0942 38.4566 13.3151C38.5091 13.5352 38.5343 13.7354 38.5321 13.9165C38.5146 15.184 37.9923 16.2388 36.9993 17.0917C36.0062 16.2123 35.4839 15.1583 35.4675 13.9165ZM13.4652 18.8787C13.556 19.313 13.8166 19.6613 14.2447 19.9252C14.6718 20.1891 15.125 20.2942 15.609 20.2412C15.7481 20.2255 15.9101 20.2015 16.0984 20.1684C16.1554 20.1577 16.2024 20.1469 16.2408 20.1353C16.4948 20.0865 16.682 19.9144 16.682 19.7076C16.682 19.4636 16.4203 19.2667 16.0973 19.2667C15.7743 19.2667 15.5137 19.4636 15.5137 19.7076C15.5137 19.8532 15.6068 19.9815 15.7502 20.0625C15.1491 20.0956 14.7068 19.9922 14.4221 19.7473C14.098 19.471 13.9009 19.1674 13.833 18.8348C13.7268 18.3244 13.8998 17.852 14.3575 17.421C14.8163 16.99 15.6561 16.7062 16.8703 16.5837C18.3715 16.4332 19.7237 16.5887 20.9018 17.0396C22.0799 17.4913 23.269 18.0092 24.4647 18.5949C25.6592 19.1806 26.9337 19.7126 28.2881 20.1957C29.6436 20.6789 31.251 20.8915 33.1386 20.8534C33.789 20.841 34.4393 20.7599 35.0908 20.611C35.7423 20.4629 36.3773 20.2727 36.9993 20.0394C37.6212 20.2718 38.2573 20.4629 38.9088 20.611C39.5592 20.7599 40.2095 20.841 40.861 20.8534C42.1311 20.8791 43.2687 20.7848 44.2826 20.5639C45.2987 20.343 46.2305 20.0625 47.0801 19.7175C47.9309 19.3726 48.7488 18.9986 49.5349 18.5949C50.3211 18.1904 51.1029 17.823 51.8791 17.4913C52.6565 17.1595 53.4755 16.8998 54.335 16.7136C55.1935 16.5275 56.1274 16.4836 57.1282 16.5837C58.3435 16.7062 59.1822 16.9891 59.641 17.421C60.0987 17.852 60.2717 18.3244 60.1655 18.8348C60.0976 19.1674 59.9005 19.471 59.5775 19.7473C59.2972 19.9872 58.8669 20.0915 58.2844 20.0642C58.43 19.9839 58.5242 19.854 58.5242 19.7076C58.5242 19.4636 58.2625 19.2667 57.9406 19.2667C57.6176 19.2667 57.3559 19.4636 57.3559 19.7076C57.3559 19.878 57.484 20.0261 57.6712 20.0998C57.7129 20.1254 57.7884 20.1486 57.9001 20.1684C58.0884 20.2015 58.2516 20.2255 58.3895 20.2412C58.8746 20.2942 59.3279 20.1891 59.7549 19.9252C60.1819 19.6613 60.4425 19.313 60.5345 18.8787C60.6582 18.2921 60.472 17.7577 59.9684 17.2812C59.4647 16.8055 58.5297 16.4903 57.1687 16.3529C55.5581 16.1916 54.0953 16.338 52.8098 16.7831C51.5233 17.2274 50.2718 17.7436 49.0597 18.3318C47.8477 18.9192 46.6082 19.4569 45.3392 19.9459C44.0702 20.4356 42.6052 20.6565 40.9212 20.6218C39.6139 20.5953 38.3997 20.3645 37.2588 19.9235C38.0208 19.5877 38.704 19.1922 39.3084 18.7339C39.7606 18.8687 40.238 18.973 40.7417 19.0474C41.2453 19.1211 41.7567 19.1657 42.28 19.1798C43.1866 19.2038 43.9837 19.1343 44.6768 18.9672C45.3721 18.8001 45.9502 18.5742 46.4155 18.2855C46.8809 17.9968 47.2466 17.6658 47.5137 17.2911C47.7798 16.9155 47.9309 16.5482 47.9659 16.1875C48.0075 15.749 47.8729 15.3651 47.5586 15.0375C47.2433 14.7108 47.0462 14.5453 46.9739 14.542C46.9017 14.5387 46.8644 14.5503 46.8622 14.5751C46.8579 14.6272 46.998 14.796 47.2816 15.0822C47.5652 15.3685 47.6845 15.7316 47.644 16.1701C47.5718 16.9444 47.0374 17.5881 46.0597 18.1134C45.0808 18.6379 43.7987 18.8704 42.1913 18.8274C41.1785 18.8009 40.3256 18.6826 39.6292 18.4667C40.3092 17.9066 40.8862 17.2712 41.3603 16.5573C41.8322 15.8433 42.1848 15.0111 42.4114 14.0597C42.3775 14.0076 42.3227 14.0059 42.2483 14.0555C41.9121 15.0301 41.4906 15.8673 40.9847 16.568C40.4778 17.2696 39.9227 17.8752 39.315 18.3848C38.9318 18.2516 38.5748 18.0994 38.2409 17.9298C37.908 17.7593 37.6004 17.5707 37.3179 17.3631C38.381 16.5126 38.9438 15.356 38.9701 13.8818C38.9734 13.6485 38.9504 13.397 38.9 13.124C38.8497 12.8526 38.7522 12.5871 38.6077 12.3273C38.4632 12.0675 38.2617 11.8524 38.0033 11.6829C37.7438 11.5141 37.4098 11.4289 36.9993 11.4289C36.5898 11.4289 36.2547 11.5141 35.9963 11.6829C35.7368 11.8524 35.5354 12.0675 35.3908 12.3273C35.2474 12.5871 35.1499 12.8526 35.0996 13.124C35.0481 13.397 35.0251 13.6485 35.0284 13.8818C35.0547 15.356 35.6175 16.5126 36.6806 17.3631C36.3981 17.5707 36.0905 17.7593 35.7576 17.9298C35.4259 18.0994 35.0667 18.2516 34.6835 18.3848C34.0758 17.8752 33.5196 17.2704 33.0138 16.568C32.509 15.8673 32.0864 15.0301 31.7513 14.0555C31.7119 14.0051 31.6572 14.0059 31.5871 14.0597C31.8137 15.0111 32.1663 15.8433 32.6393 16.5573C33.1123 17.2712 33.6904 17.9066 34.3704 18.4667C33.6729 18.6826 32.8211 18.8009 31.8072 18.8274C30.1998 18.8704 28.9177 18.6379 27.9399 18.1134C26.9622 17.5881 26.4268 16.9444 26.3545 16.1701C26.314 15.7316 26.4344 15.3685 26.7169 15.0822C27.0005 14.796 27.1417 14.6272 27.1363 14.5751C27.1341 14.5503 27.0968 14.5387 27.0246 14.542C26.9523 14.5453 26.7563 14.7108 26.441 15.0375C26.1257 15.3651 25.991 15.749 26.0326 16.1875C26.0676 16.5482 26.2187 16.9155 26.4859 17.2911C26.7519 17.6659 27.1187 17.9968 27.5841 18.2855C28.0472 18.5742 28.6286 18.8001 29.3217 18.9672C30.0159 19.1343 30.813 19.2038 31.7196 19.1798C32.2419 19.1657 32.7543 19.1211 33.2579 19.0474C33.7616 18.973 34.239 18.8687 34.6912 18.7339C35.2945 19.1922 35.9777 19.5877 36.7398 19.9235C35.5989 20.3645 34.3846 20.5961 33.0784 20.6218C31.3933 20.6565 29.9294 20.4356 28.6593 19.9459C27.3903 19.4569 26.1508 18.9192 24.9388 18.3318C23.7267 17.7436 22.4752 17.2274 21.1898 16.7831C19.9043 16.338 18.4415 16.1916 16.8298 16.3529C15.4699 16.4903 14.5349 16.8055 14.0312 17.2812C13.5276 17.7577 13.3425 18.2921 13.4652 18.8787Z" fill="#FFCA0D"/>
</g>
<g filter="url(#filter2_d)">
<rect x="10.5" y="4.5" width="61" height="85.36" rx="2.5" fill="#A23411" stroke="white" stroke-width="5"/>
<rect x="11.9286" y="5.9287" width="58.1429" height="82.5026" fill="#B8350C"/>
<path fill-rule="evenodd" clip-rule="evenodd" d="M43.0482 75.7064C42.665 75.8396 42.2993 75.9909 41.95 76.1605C41.5997 76.3301 41.2832 76.5188 41.0007 76.7256C40.7183 76.5188 40.4018 76.3301 40.0515 76.1605C39.7011 75.9909 39.3354 75.8396 38.9533 75.7064C39.5916 75.2472 40.2726 74.8633 41.0007 74.5531C41.7278 74.8633 42.4099 75.2472 43.0482 75.7064ZM42.5325 80.4435C42.5347 80.6246 42.5106 80.8248 42.4581 81.0449C42.4055 81.2658 42.3256 81.466 42.2161 81.648C42.1088 81.8292 41.9522 81.9855 41.7497 82.1154C41.5471 82.2453 41.2964 82.3107 41.0007 82.3107C40.704 82.3107 40.4544 82.2453 40.2518 82.1154C40.0493 81.9855 39.8938 81.8292 39.7843 81.648C39.6759 81.466 39.5949 81.2658 39.5434 81.0449C39.4909 80.8248 39.4657 80.6246 39.4679 80.4435C39.4854 79.176 40.0077 78.1212 41.0007 77.2683C41.9938 78.1477 42.5161 79.2017 42.5325 80.4435ZM64.5348 75.4813C64.444 75.047 64.1834 74.6987 63.7553 74.4348C63.3282 74.1709 62.875 74.0658 62.391 74.1188C62.2519 74.1345 62.0899 74.1585 61.9016 74.1916C61.8446 74.2023 61.7976 74.2131 61.7592 74.2247C61.5052 74.2735 61.318 74.4456 61.318 74.6524C61.318 74.8964 61.5797 75.0933 61.9027 75.0933C62.2257 75.0933 62.4863 74.8964 62.4863 74.6524C62.4863 74.5068 62.3932 74.3786 62.2498 74.2975C62.8509 74.2644 63.2932 74.3678 63.5779 74.6127C63.902 74.889 64.0991 75.1926 64.167 75.5252C64.2732 76.0356 64.1002 76.508 63.6425 76.939C63.1837 77.3701 62.3439 77.6538 61.1297 77.7763C59.6285 77.9268 58.2763 77.7713 57.0982 77.3204C55.9201 76.8687 54.731 76.3508 53.5353 75.7651C52.3408 75.1794 51.0663 74.6474 49.7119 74.1643C48.3564 73.6811 46.749 73.4685 44.8614 73.5066C44.211 73.519 43.5607 73.6001 42.9092 73.749C42.2577 73.8971 41.6227 74.0873 41.0007 74.3206C40.3788 74.0882 39.7427 73.8971 39.0912 73.749C38.4408 73.6001 37.7905 73.519 37.139 73.5066C35.8689 73.4809 34.7313 73.5752 33.7174 73.7961C32.7013 74.017 31.7695 74.2975 30.9199 74.6425C30.0691 74.9874 29.2512 75.3614 28.4651 75.7651C27.6789 76.1696 26.8971 76.537 26.1209 76.8687C25.3435 77.2005 24.5245 77.4602 23.665 77.6464C22.8065 77.8325 21.8726 77.8764 20.8718 77.7763C19.6565 77.6538 18.8178 77.3709 18.359 76.939C17.9013 76.508 17.7283 76.0356 17.8345 75.5252C17.9024 75.1926 18.0995 74.889 18.4225 74.6127C18.7028 74.3728 19.1331 74.2685 19.7156 74.2958C19.57 74.3761 19.4758 74.506 19.4758 74.6524C19.4758 74.8964 19.7375 75.0933 20.0594 75.0933C20.3824 75.0933 20.6441 74.8964 20.6441 74.6524C20.6441 74.482 20.516 74.3339 20.3288 74.2602C20.2871 74.2346 20.2116 74.2114 20.0999 74.1916C19.9116 74.1585 19.7484 74.1345 19.6105 74.1188C19.1254 74.0658 18.6721 74.1709 18.2451 74.4348C17.8181 74.6987 17.5575 75.047 17.4655 75.4813C17.3418 76.0679 17.528 76.6023 18.0316 77.0788C18.5353 77.5545 19.4703 77.8697 20.8313 78.0071C22.4419 78.1684 23.9047 78.022 25.1902 77.5769C26.4767 77.1326 27.7282 76.6164 28.9403 76.0282C30.1523 75.4408 31.3918 74.9031 32.6608 74.4141C33.9298 73.9244 35.3948 73.7035 37.0788 73.7382C38.3861 73.7647 39.6003 73.9955 40.7412 74.4365C39.9792 74.7723 39.296 75.1678 38.6916 75.6261C38.2394 75.4913 37.762 75.387 37.2583 75.3126C36.7547 75.2389 36.2433 75.1943 35.72 75.1802C34.8134 75.1562 34.0163 75.2257 33.3232 75.3928C32.6279 75.5599 32.0498 75.7858 31.5845 76.0745C31.1191 76.3632 30.7534 76.6942 30.4863 77.0689C30.2202 77.4445 30.0691 77.8118 30.0341 78.1725C29.9925 78.611 30.1271 78.9949 30.4414 79.3225C30.7567 79.6492 30.9538 79.8147 31.0261 79.818C31.0983 79.8213 31.1356 79.8097 31.1378 79.7849C31.1421 79.7328 31.002 79.564 30.7184 79.2778C30.4348 78.9915 30.3155 78.6284 30.356 78.1899C30.4282 77.4156 30.9626 76.7719 31.9403 76.2466C32.9192 75.7221 34.2013 75.4896 35.8087 75.5326C36.8215 75.5591 37.6744 75.6774 38.3708 75.8933C37.6908 76.4534 37.1138 77.0888 36.6397 77.8027C36.1678 78.5167 35.8152 79.3489 35.5886 80.3003C35.6225 80.3524 35.6773 80.3541 35.7517 80.3045C36.0879 79.3299 36.5094 78.4927 37.0153 77.792C37.5222 77.0904 38.0773 76.4848 38.685 75.9752C39.0682 76.1084 39.4252 76.2606 39.7591 76.4302C40.092 76.6007 40.3996 76.7893 40.6821 76.9969C39.619 77.8474 39.0562 79.004 39.0299 80.4782C39.0266 80.7115 39.0496 80.963 39.1 81.236C39.1503 81.5074 39.2478 81.7729 39.3923 82.0327C39.5368 82.2925 39.7383 82.5076 39.9967 82.6771C40.2562 82.8459 40.5901 82.9311 41.0007 82.9311C41.4102 82.9311 41.7453 82.8459 42.0037 82.6771C42.2632 82.5076 42.4646 82.2925 42.6092 82.0327C42.7526 81.7729 42.8501 81.5074 42.9004 81.236C42.9519 80.963 42.9749 80.7115 42.9716 80.4782C42.9453 79.004 42.3825 77.8474 41.3194 76.9969C41.6019 76.7893 41.9095 76.6007 42.2424 76.4302C42.5741 76.2606 42.9333 76.1084 43.3165 75.9752C43.9242 76.4848 44.4804 77.0896 44.9862 77.792C45.491 78.4927 45.9136 79.3299 46.2487 80.3045C46.2881 80.3549 46.3428 80.3541 46.4129 80.3003C46.1863 79.3489 45.8337 78.5167 45.3607 77.8027C44.8877 77.0888 44.3096 76.4534 43.6296 75.8933C44.3271 75.6774 45.1789 75.5591 46.1928 75.5326C47.8002 75.4896 49.0823 75.7221 50.0601 76.2466C51.0378 76.7719 51.5732 77.4156 51.6455 78.1899C51.686 78.6284 51.5656 78.9915 51.2831 79.2778C50.9995 79.564 50.8583 79.7328 50.8637 79.7849C50.8659 79.8097 50.9032 79.8213 50.9754 79.818C51.0477 79.8147 51.2437 79.6492 51.559 79.3225C51.8743 78.9949 52.009 78.611 51.9674 78.1725C51.9324 77.8118 51.7813 77.4445 51.5141 77.0689C51.2481 76.6942 50.8813 76.3632 50.4159 76.0745C49.9528 75.7858 49.3714 75.5599 48.6783 75.3928C47.9841 75.2257 47.187 75.1562 46.2804 75.1802C45.7581 75.1943 45.2457 75.2389 44.7421 75.3126C44.2384 75.387 43.761 75.4913 43.3088 75.6261C42.7055 75.1678 42.0223 74.7723 41.2602 74.4365C42.4011 73.9955 43.6154 73.7639 44.9216 73.7382C46.6067 73.7035 48.0706 73.9244 49.3407 74.4141C50.6097 74.9031 51.8492 75.4408 53.0612 76.0282C54.2733 76.6164 55.5248 77.1326 56.8102 77.5769C58.0957 78.022 59.5585 78.1684 61.1702 78.0071C62.5301 77.8697 63.4651 77.5545 63.9688 77.0788C64.4724 76.6023 64.6575 76.0679 64.5348 75.4813Z" fill="#FFCA0D"/>
<path fill-rule="evenodd" clip-rule="evenodd" d="M38.9518 57.9406C39.335 57.8074 39.7007 57.656 40.05 57.4864C40.4003 57.3168 40.7168 57.1282 40.9993 56.9214C41.2817 57.1282 41.5982 57.3168 41.9485 57.4864C42.2989 57.656 42.6646 57.8074 43.0467 57.9406C42.4084 58.3997 41.7274 58.7836 40.9993 59.0938C40.2722 58.7836 39.5901 58.3997 38.9518 57.9406ZM39.4675 53.2035C39.4653 53.0223 39.4894 52.8221 39.5419 52.6021C39.5945 52.3812 39.6744 52.181 39.7839 51.999C39.8912 51.8178 40.0478 51.6614 40.2503 51.5315C40.4529 51.4017 40.7036 51.3363 40.9993 51.3363C41.296 51.3363 41.5456 51.4017 41.7482 51.5315C41.9507 51.6614 42.1062 51.8178 42.2157 51.999C42.3241 52.181 42.4051 52.3812 42.4566 52.6021C42.5091 52.8221 42.5343 53.0223 42.5321 53.2035C42.5146 54.4709 41.9923 55.5257 40.9993 56.3787C40.0062 55.4992 39.4839 54.4453 39.4675 53.2035ZM17.4652 58.1656C17.556 58.6 17.8166 58.9482 18.2447 59.2121C18.6718 59.4761 19.125 59.5811 19.609 59.5282C19.7481 59.5125 19.9101 59.4885 20.0984 59.4554C20.1554 59.4446 20.2024 59.4339 20.2408 59.4223C20.4948 59.3735 20.682 59.2014 20.682 58.9946C20.682 58.7505 20.4203 58.5536 20.0973 58.5536C19.7743 58.5536 19.5137 58.7505 19.5137 58.9946C19.5137 59.1402 19.6068 59.2684 19.7502 59.3495C19.1491 59.3826 18.7068 59.2792 18.4221 59.0343C18.098 58.758 17.9009 58.4543 17.833 58.1218C17.7268 57.6113 17.8998 57.1389 18.3575 56.7079C18.8163 56.2769 19.6561 55.9931 20.8703 55.8707C22.3715 55.7201 23.7237 55.8757 24.9018 56.3265C26.0799 56.7782 27.269 57.2961 28.4647 57.8819C29.6592 58.4676 30.9337 58.9995 32.2881 59.4827C33.6436 59.9658 35.251 60.1784 37.1386 60.1404C37.789 60.128 38.4393 60.0469 39.0908 59.898C39.7423 59.7499 40.3773 59.5596 40.9993 59.3263C41.6212 59.5588 42.2573 59.7499 42.9088 59.898C43.5592 60.0469 44.2095 60.128 44.861 60.1404C46.1311 60.166 47.2687 60.0717 48.2826 59.8508C49.2987 59.6299 50.2305 59.3495 51.0801 59.0045C51.9309 58.6595 52.7488 58.2856 53.5349 57.8819C54.3211 57.4773 55.1029 57.11 55.8791 56.7782C56.6565 56.4465 57.4755 56.1867 58.335 56.0006C59.1935 55.8144 60.1274 55.7706 61.1282 55.8707C62.3435 55.9931 63.1822 56.2761 63.641 56.7079C64.0987 57.1389 64.2717 57.6113 64.1655 58.1218C64.0976 58.4543 63.9005 58.758 63.5775 59.0343C63.2972 59.2742 62.8669 59.3784 62.2844 59.3511C62.43 59.2709 62.5242 59.141 62.5242 58.9946C62.5242 58.7505 62.2625 58.5536 61.9406 58.5536C61.6176 58.5536 61.3559 58.7505 61.3559 58.9946C61.3559 59.165 61.484 59.3131 61.6712 59.3867C61.7129 59.4124 61.7884 59.4355 61.9001 59.4554C62.0884 59.4885 62.2516 59.5125 62.3895 59.5282C62.8746 59.5811 63.3279 59.4761 63.7549 59.2121C64.1819 58.9482 64.4425 58.5999 64.5345 58.1656C64.6582 57.5791 64.472 57.0446 63.9684 56.5681C63.4647 56.0924 62.5297 55.7772 61.1687 55.6399C59.5581 55.4786 58.0953 55.625 56.8098 56.0701C55.5233 56.5143 54.2718 57.0306 53.0597 57.6188C51.8477 58.2062 50.6082 58.7439 49.3392 59.2328C48.0702 59.7226 46.6052 59.9435 44.9212 59.9087C43.6139 59.8823 42.3997 59.6514 41.2588 59.2105C42.0208 58.8746 42.704 58.4792 43.3084 58.0208C43.7606 58.1557 44.238 58.2599 44.7417 58.3344C45.2453 58.408 45.7567 58.4527 46.28 58.4668C47.1866 58.4907 47.9837 58.4213 48.6768 58.2541C49.3721 58.087 49.9502 57.8612 50.4155 57.5724C50.8809 57.2837 51.2466 56.9528 51.5137 56.578C51.7798 56.2024 51.9309 55.8351 51.9659 55.4744C52.0075 55.036 51.8729 54.6521 51.5586 54.3245C51.2433 53.9977 51.0462 53.8322 50.9739 53.8289C50.9017 53.8256 50.8644 53.8372 50.8622 53.862C50.8579 53.9141 50.998 54.0829 51.2816 54.3692C51.5652 54.6554 51.6845 55.0186 51.644 55.4571C51.5718 56.2314 51.0374 56.875 50.0597 57.4004C49.0808 57.9249 47.7987 58.1573 46.1913 58.1143C45.1785 58.0879 44.3256 57.9695 43.6292 57.7536C44.3092 57.1935 44.8862 56.5582 45.3603 55.8442C45.8322 55.1303 46.1848 54.298 46.4114 53.3466C46.3775 53.2945 46.3227 53.2928 46.2483 53.3425C45.9121 54.317 45.4906 55.1543 44.9847 55.855C44.4778 56.5565 43.9227 57.1621 43.315 57.6717C42.9318 57.5385 42.5748 57.3863 42.2409 57.2167C41.908 57.0463 41.6004 56.8577 41.3179 56.65C42.381 55.7996 42.9438 54.643 42.9701 53.1688C42.9734 52.9355 42.9504 52.684 42.9 52.411C42.8497 52.1396 42.7522 51.874 42.6077 51.6143C42.4632 51.3545 42.2617 51.1394 42.0033 50.9698C41.7438 50.801 41.4098 50.7158 40.9993 50.7158C40.5898 50.7158 40.2547 50.801 39.9963 50.9698C39.7368 51.1394 39.5354 51.3545 39.3908 51.6143C39.2474 51.874 39.1499 52.1396 39.0996 52.411C39.0481 52.684 39.0251 52.9355 39.0284 53.1688C39.0547 54.643 39.6175 55.7996 40.6806 56.65C40.3981 56.8577 40.0905 57.0463 39.7576 57.2167C39.4259 57.3863 39.0667 57.5385 38.6835 57.6717C38.0758 57.1621 37.5196 56.5574 37.0138 55.855C36.509 55.1543 36.0864 54.317 35.7513 53.3425C35.7119 53.292 35.6572 53.2928 35.5871 53.3466C35.8137 54.298 36.1663 55.1303 36.6393 55.8442C37.1123 56.5582 37.6904 57.1935 38.3704 57.7536C37.6729 57.9695 36.8211 58.0879 35.8072 58.1143C34.1998 58.1573 32.9177 57.9249 31.9399 57.4004C30.9622 56.875 30.4268 56.2314 30.3545 55.4571C30.314 55.0186 30.4344 54.6554 30.7169 54.3692C31.0005 54.0829 31.1417 53.9141 31.1363 53.862C31.1341 53.8372 31.0968 53.8256 31.0246 53.8289C30.9523 53.8322 30.7563 53.9977 30.441 54.3245C30.1257 54.6521 29.991 55.036 30.0326 55.4744C30.0676 55.8351 30.2187 56.2024 30.4859 56.578C30.7519 56.9528 31.1187 57.2837 31.5841 57.5724C32.0472 57.8612 32.6286 58.087 33.3217 58.2541C34.0159 58.4213 34.813 58.4907 35.7196 58.4668C36.2419 58.4527 36.7543 58.408 37.2579 58.3344C37.7616 58.2599 38.239 58.1557 38.6912 58.0208C39.2945 58.4792 39.9777 58.8746 40.7398 59.2105C39.5989 59.6514 38.3846 59.8831 37.0784 59.9087C35.3933 59.9435 33.9294 59.7226 32.6593 59.2328C31.3903 58.7439 30.1508 58.2062 28.9388 57.6188C27.7267 57.0306 26.4752 56.5143 25.1898 56.0701C23.9043 55.625 22.4415 55.4786 20.8298 55.6399C19.4699 55.7772 18.5349 56.0924 18.0312 56.5681C17.5276 57.0446 17.3425 57.5791 17.4652 58.1656Z" fill="#FFCA0D"/>
<path fill-rule="evenodd" clip-rule="evenodd" d="M43.0482 36.4194C42.665 36.5526 42.2993 36.704 41.95 36.8736C41.5997 37.0432 41.2832 37.2318 41.0007 37.4386C40.7183 37.2318 40.4018 37.0432 40.0515 36.8736C39.7011 36.704 39.3354 36.5526 38.9533 36.4194C39.5916 35.9603 40.2726 35.5764 41.0007 35.2662C41.7278 35.5764 42.4099 35.9603 43.0482 36.4194ZM42.5325 41.1565C42.5347 41.3377 42.5106 41.5379 42.4581 41.7579C42.4055 41.9788 42.3256 42.179 42.2161 42.361C42.1088 42.5422 41.9522 42.6986 41.7497 42.8285C41.5471 42.9583 41.2964 43.0237 41.0007 43.0237C40.704 43.0237 40.4544 42.9583 40.2518 42.8285C40.0493 42.6986 39.8938 42.5422 39.7843 42.361C39.6759 42.179 39.5949 41.9788 39.5434 41.7579C39.4909 41.5379 39.4657 41.3377 39.4679 41.1565C39.4854 39.8891 40.0077 38.8343 41.0007 37.9813C41.9938 38.8608 42.5161 39.9147 42.5325 41.1565ZM64.5348 36.1944C64.444 35.76 64.1834 35.4118 63.7553 35.1479C63.3282 34.8839 62.875 34.7789 62.391 34.8318C62.2519 34.8475 62.0899 34.8715 61.9016 34.9046C61.8446 34.9154 61.7976 34.9261 61.7592 34.9377C61.5052 34.9865 61.318 35.1586 61.318 35.3654C61.318 35.6095 61.5797 35.8064 61.9027 35.8064C62.2257 35.8064 62.4863 35.6095 62.4863 35.3654C62.4863 35.2198 62.3932 35.0916 62.2498 35.0105C62.8509 34.9774 63.2932 35.0808 63.5779 35.3257C63.902 35.602 64.0991 35.9057 64.167 36.2382C64.2732 36.7487 64.1002 37.2211 63.6425 37.6521C63.1837 38.0831 62.3439 38.3669 61.1297 38.4893C59.6285 38.6399 58.2763 38.4843 57.0982 38.0335C55.9201 37.5818 54.731 37.0639 53.5353 36.4781C52.3408 35.8924 51.0663 35.3605 49.7119 34.8773C48.3564 34.3942 46.749 34.1816 44.8614 34.2196C44.211 34.232 43.5607 34.3131 42.9092 34.462C42.2577 34.6101 41.6227 34.8004 41.0007 35.0337C40.3788 34.8012 39.7427 34.6101 39.0912 34.462C38.4408 34.3131 37.7905 34.232 37.139 34.2196C35.8689 34.194 34.7313 34.2883 33.7174 34.5092C32.7013 34.7301 31.7695 35.0105 30.9199 35.3555C30.0691 35.7005 29.2512 36.0744 28.4651 36.4781C27.6789 36.8827 26.8971 37.25 26.1209 37.5818C25.3435 37.9135 24.5245 38.1733 23.665 38.3594C22.8065 38.5456 21.8726 38.5894 20.8718 38.4893C19.6565 38.3669 18.8178 38.0839 18.359 37.6521C17.9013 37.2211 17.7283 36.7487 17.8345 36.2382C17.9024 35.9057 18.0995 35.602 18.4225 35.3257C18.7028 35.0858 19.1331 34.9816 19.7156 35.0089C19.57 35.0891 19.4758 35.219 19.4758 35.3654C19.4758 35.6095 19.7375 35.8064 20.0594 35.8064C20.3824 35.8064 20.6441 35.6095 20.6441 35.3654C20.6441 35.195 20.516 35.0469 20.3288 34.9733C20.2871 34.9476 20.2116 34.9245 20.0999 34.9046C19.9116 34.8715 19.7484 34.8475 19.6105 34.8318C19.1254 34.7789 18.6721 34.8839 18.2451 35.1479C17.8181 35.4118 17.5575 35.76 17.4655 36.1944C17.3418 36.7809 17.528 37.3154 18.0316 37.7919C18.5353 38.2676 19.4703 38.5828 20.8313 38.7201C22.4419 38.8814 23.9047 38.735 25.1902 38.2899C26.4767 37.8457 27.7282 37.3294 28.9403 36.7412C30.1523 36.1538 31.3918 35.6161 32.6608 35.1272C33.9298 34.6374 35.3948 34.4165 37.0788 34.4513C38.3861 34.4777 39.6003 34.7086 40.7412 35.1495C39.9792 35.4854 39.296 35.8808 38.6916 36.3392C38.2394 36.2043 37.762 36.1001 37.2583 36.0256C36.7547 35.952 36.2433 35.9073 35.72 35.8932C34.8134 35.8693 34.0163 35.9387 33.3232 36.1059C32.6279 36.273 32.0498 36.4988 31.5845 36.7875C31.1191 37.0763 30.7534 37.4072 30.4863 37.782C30.2202 38.1575 30.0691 38.5249 30.0341 38.8856C29.9925 39.324 30.1271 39.7079 30.4414 40.0355C30.7567 40.3623 30.9538 40.5277 31.0261 40.5311C31.0983 40.5344 31.1356 40.5228 31.1378 40.498C31.1421 40.4458 31.002 40.2771 30.7184 39.9908C30.4348 39.7046 30.3155 39.3414 30.356 38.9029C30.4282 38.1286 30.9626 37.485 31.9403 36.9596C32.9192 36.4351 34.2013 36.2027 35.8087 36.2457C36.8215 36.2721 37.6744 36.3904 38.3708 36.6064C37.6908 37.1665 37.1138 37.8018 36.6397 38.5158C36.1678 39.2297 35.8152 40.062 35.5886 41.0134C35.6225 41.0655 35.6773 41.0671 35.7517 41.0175C36.0879 40.043 36.5094 39.2057 37.0153 38.505C37.5222 37.8035 38.0773 37.1979 38.685 36.6883C39.0682 36.8215 39.4252 36.9737 39.7591 37.1433C40.092 37.3137 40.3996 37.5023 40.6821 37.71C39.619 38.5604 39.0562 39.717 39.0299 41.1912C39.0266 41.4245 39.0496 41.676 39.1 41.949C39.1503 42.2204 39.2478 42.486 39.3923 42.7457C39.5368 43.0055 39.7383 43.2206 39.9967 43.3902C40.2562 43.559 40.5901 43.6442 41.0007 43.6442C41.4102 43.6442 41.7453 43.559 42.0037 43.3902C42.2632 43.2206 42.4646 43.0055 42.6092 42.7457C42.7526 42.486 42.8501 42.2204 42.9004 41.949C42.9519 41.676 42.9749 41.4245 42.9716 41.1912C42.9453 39.717 42.3825 38.5604 41.3194 37.71C41.6019 37.5023 41.9095 37.3137 42.2424 37.1433C42.5741 36.9737 42.9333 36.8215 43.3165 36.6883C43.9242 37.1979 44.4804 37.8026 44.9862 38.505C45.491 39.2057 45.9136 40.043 46.2487 41.0175C46.2881 41.068 46.3428 41.0671 46.4129 41.0134C46.1863 40.062 45.8337 39.2297 45.3607 38.5158C44.8877 37.8018 44.3096 37.1665 43.6296 36.6064C44.3271 36.3904 45.1789 36.2721 46.1928 36.2457C47.8002 36.2027 49.0823 36.4351 50.0601 36.9596C51.0378 37.485 51.5732 38.1286 51.6455 38.9029C51.686 39.3414 51.5656 39.7046 51.2831 39.9908C50.9995 40.2771 50.8583 40.4458 50.8637 40.498C50.8659 40.5228 50.9032 40.5344 50.9754 40.5311C51.0477 40.5277 51.2437 40.3623 51.559 40.0355C51.8743 39.7079 52.009 39.324 51.9674 38.8856C51.9324 38.5249 51.7813 38.1575 51.5141 37.782C51.2481 37.4072 50.8813 37.0763 50.4159 36.7875C49.9528 36.4988 49.3714 36.273 48.6783 36.1059C47.9841 35.9387 47.187 35.8693 46.2804 35.8932C45.7581 35.9073 45.2457 35.952 44.7421 36.0256C44.2384 36.1001 43.761 36.2043 43.3088 36.3392C42.7055 35.8808 42.0223 35.4854 41.2602 35.1495C42.4011 34.7086 43.6154 34.4769 44.9216 34.4513C46.6067 34.4165 48.0706 34.6374 49.3407 35.1272C50.6097 35.6161 51.8492 36.1538 53.0612 36.7412C54.2733 37.3294 55.5248 37.8457 56.8102 38.2899C58.0957 38.735 59.5585 38.8814 61.1702 38.7201C62.5301 38.5828 63.4651 38.2676 63.9688 37.7919C64.4724 37.3154 64.6575 36.7809 64.5348 36.1944Z" fill="#FFCA0D"/>
<path fill-rule="evenodd" clip-rule="evenodd" d="M38.9518 18.6536C39.335 18.5204 39.7007 18.3691 40.05 18.1995C40.4003 18.0299 40.7168 17.8412 40.9993 17.6344C41.2817 17.8412 41.5982 18.0299 41.9485 18.1995C42.2989 18.3691 42.6646 18.5204 43.0467 18.6536C42.4084 19.1128 41.7274 19.4967 40.9993 19.8069C40.2722 19.4967 39.5901 19.1128 38.9518 18.6536ZM39.4675 13.9165C39.4653 13.7354 39.4894 13.5352 39.5419 13.3151C39.5945 13.0942 39.6744 12.894 39.7839 12.712C39.8912 12.5308 40.0478 12.3745 40.2503 12.2446C40.4529 12.1147 40.7036 12.0493 40.9993 12.0493C41.296 12.0493 41.5456 12.1147 41.7482 12.2446C41.9507 12.3745 42.1062 12.5308 42.2157 12.712C42.3241 12.894 42.4051 13.0942 42.4566 13.3151C42.5091 13.5352 42.5343 13.7354 42.5321 13.9165C42.5146 15.184 41.9923 16.2388 40.9993 17.0917C40.0062 16.2123 39.4839 15.1583 39.4675 13.9165ZM17.4652 18.8787C17.556 19.313 17.8166 19.6613 18.2447 19.9252C18.6718 20.1891 19.125 20.2942 19.609 20.2412C19.7481 20.2255 19.9101 20.2015 20.0984 20.1684C20.1554 20.1577 20.2024 20.1469 20.2408 20.1353C20.4948 20.0865 20.682 19.9144 20.682 19.7076C20.682 19.4636 20.4203 19.2667 20.0973 19.2667C19.7743 19.2667 19.5137 19.4636 19.5137 19.7076C19.5137 19.8532 19.6068 19.9815 19.7502 20.0625C19.1491 20.0956 18.7068 19.9922 18.4221 19.7473C18.098 19.471 17.9009 19.1674 17.833 18.8348C17.7268 18.3244 17.8998 17.852 18.3575 17.421C18.8163 16.99 19.6561 16.7062 20.8703 16.5837C22.3715 16.4332 23.7237 16.5887 24.9018 17.0396C26.0799 17.4913 27.269 18.0092 28.4647 18.5949C29.6592 19.1806 30.9337 19.7126 32.2881 20.1957C33.6436 20.6789 35.251 20.8915 37.1386 20.8534C37.789 20.841 38.4393 20.7599 39.0908 20.611C39.7423 20.4629 40.3773 20.2727 40.9993 20.0394C41.6212 20.2718 42.2573 20.4629 42.9088 20.611C43.5592 20.7599 44.2095 20.841 44.861 20.8534C46.1311 20.8791 47.2687 20.7848 48.2826 20.5639C49.2987 20.343 50.2305 20.0625 51.0801 19.7175C51.9309 19.3726 52.7488 18.9986 53.5349 18.5949C54.3211 18.1904 55.1029 17.823 55.8791 17.4913C56.6565 17.1595 57.4755 16.8998 58.335 16.7136C59.1935 16.5275 60.1274 16.4836 61.1282 16.5837C62.3435 16.7062 63.1822 16.9891 63.641 17.421C64.0987 17.852 64.2717 18.3244 64.1655 18.8348C64.0976 19.1674 63.9005 19.471 63.5775 19.7473C63.2972 19.9872 62.8669 20.0915 62.2844 20.0642C62.43 19.9839 62.5242 19.854 62.5242 19.7076C62.5242 19.4636 62.2625 19.2667 61.9406 19.2667C61.6176 19.2667 61.3559 19.4636 61.3559 19.7076C61.3559 19.878 61.484 20.0261 61.6712 20.0998C61.7129 20.1254 61.7884 20.1486 61.9001 20.1684C62.0884 20.2015 62.2516 20.2255 62.3895 20.2412C62.8746 20.2942 63.3279 20.1891 63.7549 19.9252C64.1819 19.6613 64.4425 19.313 64.5345 18.8787C64.6582 18.2921 64.472 17.7577 63.9684 17.2812C63.4647 16.8055 62.5297 16.4903 61.1687 16.3529C59.5581 16.1916 58.0953 16.338 56.8098 16.7831C55.5233 17.2274 54.2718 17.7436 53.0597 18.3318C51.8477 18.9192 50.6082 19.4569 49.3392 19.9459C48.0702 20.4356 46.6052 20.6565 44.9212 20.6218C43.6139 20.5953 42.3997 20.3645 41.2588 19.9235C42.0208 19.5877 42.704 19.1922 43.3084 18.7339C43.7606 18.8687 44.238 18.973 44.7417 19.0474C45.2453 19.1211 45.7567 19.1657 46.28 19.1798C47.1866 19.2038 47.9837 19.1343 48.6768 18.9672C49.3721 18.8001 49.9502 18.5742 50.4155 18.2855C50.8809 17.9968 51.2466 17.6658 51.5137 17.2911C51.7798 16.9155 51.9309 16.5482 51.9659 16.1875C52.0075 15.749 51.8729 15.3651 51.5586 15.0375C51.2433 14.7108 51.0462 14.5453 50.9739 14.542C50.9017 14.5387 50.8644 14.5503 50.8622 14.5751C50.8579 14.6272 50.998 14.796 51.2816 15.0822C51.5652 15.3685 51.6845 15.7316 51.644 16.1701C51.5718 16.9444 51.0374 17.5881 50.0597 18.1134C49.0808 18.6379 47.7987 18.8704 46.1913 18.8274C45.1785 18.8009 44.3256 18.6826 43.6292 18.4667C44.3092 17.9066 44.8862 17.2712 45.3603 16.5573C45.8322 15.8433 46.1848 15.0111 46.4114 14.0597C46.3775 14.0076 46.3227 14.0059 46.2483 14.0555C45.9121 15.0301 45.4906 15.8673 44.9847 16.568C44.4778 17.2696 43.9227 17.8752 43.315 18.3848C42.9318 18.2516 42.5748 18.0994 42.2409 17.9298C41.908 17.7593 41.6004 17.5707 41.3179 17.3631C42.381 16.5126 42.9438 15.356 42.9701 13.8818C42.9734 13.6485 42.9504 13.397 42.9 13.124C42.8497 12.8526 42.7522 12.5871 42.6077 12.3273C42.4632 12.0675 42.2617 11.8524 42.0033 11.6829C41.7438 11.5141 41.4098 11.4289 40.9993 11.4289C40.5898 11.4289 40.2547 11.5141 39.9963 11.6829C39.7368 11.8524 39.5354 12.0675 39.3908 12.3273C39.2474 12.5871 39.1499 12.8526 39.0996 13.124C39.0481 13.397 39.0251 13.6485 39.0284 13.8818C39.0547 15.356 39.6175 16.5126 40.6806 17.3631C40.3981 17.5707 40.0905 17.7593 39.7576 17.9298C39.4259 18.0994 39.0667 18.2516 38.6835 18.3848C38.0758 17.8752 37.5196 17.2704 37.0138 16.568C36.509 15.8673 36.0864 15.0301 35.7513 14.0555C35.7119 14.0051 35.6572 14.0059 35.5871 14.0597C35.8137 15.0111 36.1663 15.8433 36.6393 16.5573C37.1123 17.2712 37.6904 17.9066 38.3704 18.4667C37.6729 18.6826 36.8211 18.8009 35.8072 18.8274C34.1998 18.8704 32.9177 18.6379 31.9399 18.1134C30.9622 17.5881 30.4268 16.9444 30.3545 16.1701C30.314 15.7316 30.4344 15.3685 30.7169 15.0822C31.0005 14.796 31.1417 14.6272 31.1363 14.5751C31.1341 14.5503 31.0968 14.5387 31.0246 14.542C30.9523 14.5453 30.7563 14.7108 30.441 15.0375C30.1257 15.3651 29.991 15.749 30.0326 16.1875C30.0676 16.5482 30.2187 16.9155 30.4859 17.2911C30.7519 17.6659 31.1187 17.9968 31.5841 18.2855C32.0472 18.5742 32.6286 18.8001 33.3217 18.9672C34.0159 19.1343 34.813 19.2038 35.7196 19.1798C36.2419 19.1657 36.7543 19.1211 37.2579 19.0474C37.7616 18.973 38.239 18.8687 38.6912 18.7339C39.2945 19.1922 39.9777 19.5877 40.7398 19.9235C39.5989 20.3645 38.3846 20.5961 37.0784 20.6218C35.3933 20.6565 33.9294 20.4356 32.6593 19.9459C31.3903 19.4569 30.1508 18.9192 28.9388 18.3318C27.7267 17.7436 26.4752 17.2274 25.1898 16.7831C23.9043 16.338 22.4415 16.1916 20.8298 16.3529C19.4699 16.4903 18.5349 16.8055 18.0312 17.2812C17.5276 17.7577 17.3425 18.2921 17.4652 18.8787Z" fill="#FFCA0D"/>
</g>
<g filter="url(#filter3_d)">
<rect x="14.5" y="4.5" width="61" height="85.36" rx="2.5" fill="#A23411" stroke="white" stroke-width="5"/>
<rect x="15.9286" y="5.9287" width="58.1429" height="82.5026" fill="#B8350C"/>
<path fill-rule="evenodd" clip-rule="evenodd" d="M47.0482 75.7064C46.665 75.8396 46.2993 75.9909 45.95 76.1605C45.5997 76.3301 45.2832 76.5188 45.0007 76.7256C44.7183 76.5188 44.4018 76.3301 44.0515 76.1605C43.7011 75.9909 43.3354 75.8396 42.9533 75.7064C43.5916 75.2472 44.2726 74.8633 45.0007 74.5531C45.7278 74.8633 46.4099 75.2472 47.0482 75.7064ZM46.5325 80.4435C46.5347 80.6246 46.5106 80.8248 46.4581 81.0449C46.4055 81.2658 46.3256 81.466 46.2161 81.648C46.1088 81.8292 45.9522 81.9855 45.7497 82.1154C45.5471 82.2453 45.2964 82.3107 45.0007 82.3107C44.704 82.3107 44.4544 82.2453 44.2518 82.1154C44.0493 81.9855 43.8938 81.8292 43.7843 81.648C43.6759 81.466 43.5949 81.2658 43.5434 81.0449C43.4909 80.8248 43.4657 80.6246 43.4679 80.4435C43.4854 79.176 44.0077 78.1212 45.0007 77.2683C45.9938 78.1477 46.5161 79.2017 46.5325 80.4435ZM68.5348 75.4813C68.444 75.047 68.1834 74.6987 67.7553 74.4348C67.3282 74.1709 66.875 74.0658 66.391 74.1188C66.2519 74.1345 66.0899 74.1585 65.9016 74.1916C65.8446 74.2023 65.7976 74.2131 65.7592 74.2247C65.5052 74.2735 65.318 74.4456 65.318 74.6524C65.318 74.8964 65.5797 75.0933 65.9027 75.0933C66.2257 75.0933 66.4863 74.8964 66.4863 74.6524C66.4863 74.5068 66.3932 74.3786 66.2498 74.2975C66.8509 74.2644 67.2932 74.3678 67.5779 74.6127C67.902 74.889 68.0991 75.1926 68.167 75.5252C68.2732 76.0356 68.1002 76.508 67.6425 76.939C67.1837 77.3701 66.3439 77.6538 65.1297 77.7763C63.6285 77.9268 62.2763 77.7713 61.0982 77.3204C59.9201 76.8687 58.731 76.3508 57.5353 75.7651C56.3408 75.1794 55.0663 74.6474 53.7119 74.1643C52.3564 73.6811 50.749 73.4685 48.8614 73.5066C48.211 73.519 47.5607 73.6001 46.9092 73.749C46.2577 73.8971 45.6227 74.0873 45.0007 74.3206C44.3788 74.0882 43.7427 73.8971 43.0912 73.749C42.4408 73.6001 41.7905 73.519 41.139 73.5066C39.8689 73.4809 38.7313 73.5752 37.7174 73.7961C36.7013 74.017 35.7695 74.2975 34.9199 74.6425C34.0691 74.9874 33.2512 75.3614 32.4651 75.7651C31.6789 76.1696 30.8971 76.537 30.1209 76.8687C29.3435 77.2005 28.5245 77.4602 27.665 77.6464C26.8065 77.8325 25.8726 77.8764 24.8718 77.7763C23.6565 77.6538 22.8178 77.3709 22.359 76.939C21.9013 76.508 21.7283 76.0356 21.8345 75.5252C21.9024 75.1926 22.0995 74.889 22.4225 74.6127C22.7028 74.3728 23.1331 74.2685 23.7156 74.2958C23.57 74.3761 23.4758 74.506 23.4758 74.6524C23.4758 74.8964 23.7375 75.0933 24.0594 75.0933C24.3824 75.0933 24.6441 74.8964 24.6441 74.6524C24.6441 74.482 24.516 74.3339 24.3288 74.2602C24.2871 74.2346 24.2116 74.2114 24.0999 74.1916C23.9116 74.1585 23.7484 74.1345 23.6105 74.1188C23.1254 74.0658 22.6721 74.1709 22.2451 74.4348C21.8181 74.6987 21.5575 75.047 21.4655 75.4813C21.3418 76.0679 21.528 76.6023 22.0316 77.0788C22.5353 77.5545 23.4703 77.8697 24.8313 78.0071C26.4419 78.1684 27.9047 78.022 29.1902 77.5769C30.4767 77.1326 31.7282 76.6164 32.9403 76.0282C34.1523 75.4408 35.3918 74.9031 36.6608 74.4141C37.9298 73.9244 39.3948 73.7035 41.0788 73.7382C42.3861 73.7647 43.6003 73.9955 44.7412 74.4365C43.9792 74.7723 43.296 75.1678 42.6916 75.6261C42.2394 75.4913 41.762 75.387 41.2583 75.3126C40.7547 75.2389 40.2433 75.1943 39.72 75.1802C38.8134 75.1562 38.0163 75.2257 37.3232 75.3928C36.6279 75.5599 36.0498 75.7858 35.5845 76.0745C35.1191 76.3632 34.7534 76.6942 34.4863 77.0689C34.2202 77.4445 34.0691 77.8118 34.0341 78.1725C33.9925 78.611 34.1271 78.9949 34.4414 79.3225C34.7567 79.6492 34.9538 79.8147 35.0261 79.818C35.0983 79.8213 35.1356 79.8097 35.1378 79.7849C35.1421 79.7328 35.002 79.564 34.7184 79.2778C34.4348 78.9915 34.3155 78.6284 34.356 78.1899C34.4282 77.4156 34.9626 76.7719 35.9403 76.2466C36.9192 75.7221 38.2013 75.4896 39.8087 75.5326C40.8215 75.5591 41.6744 75.6774 42.3708 75.8933C41.6908 76.4534 41.1138 77.0888 40.6397 77.8027C40.1678 78.5167 39.8152 79.3489 39.5886 80.3003C39.6225 80.3524 39.6773 80.3541 39.7517 80.3045C40.0879 79.3299 40.5094 78.4927 41.0153 77.792C41.5222 77.0904 42.0773 76.4848 42.685 75.9752C43.0682 76.1084 43.4252 76.2606 43.7591 76.4302C44.092 76.6007 44.3996 76.7893 44.6821 76.9969C43.619 77.8474 43.0562 79.004 43.0299 80.4782C43.0266 80.7115 43.0496 80.963 43.1 81.236C43.1503 81.5074 43.2478 81.7729 43.3923 82.0327C43.5368 82.2925 43.7383 82.5076 43.9967 82.6771C44.2562 82.8459 44.5901 82.9311 45.0007 82.9311C45.4102 82.9311 45.7453 82.8459 46.0037 82.6771C46.2632 82.5076 46.4646 82.2925 46.6092 82.0327C46.7526 81.7729 46.8501 81.5074 46.9004 81.236C46.9519 80.963 46.9749 80.7115 46.9716 80.4782C46.9453 79.004 46.3825 77.8474 45.3194 76.9969C45.6019 76.7893 45.9095 76.6007 46.2424 76.4302C46.5741 76.2606 46.9333 76.1084 47.3165 75.9752C47.9242 76.4848 48.4804 77.0896 48.9862 77.792C49.491 78.4927 49.9136 79.3299 50.2487 80.3045C50.2881 80.3549 50.3428 80.3541 50.4129 80.3003C50.1863 79.3489 49.8337 78.5167 49.3607 77.8027C48.8877 77.0888 48.3096 76.4534 47.6296 75.8933C48.3271 75.6774 49.1789 75.5591 50.1928 75.5326C51.8002 75.4896 53.0823 75.7221 54.0601 76.2466C55.0378 76.7719 55.5732 77.4156 55.6455 78.1899C55.686 78.6284 55.5656 78.9915 55.2831 79.2778C54.9995 79.564 54.8583 79.7328 54.8637 79.7849C54.8659 79.8097 54.9032 79.8213 54.9754 79.818C55.0477 79.8147 55.2437 79.6492 55.559 79.3225C55.8743 78.9949 56.009 78.611 55.9674 78.1725C55.9324 77.8118 55.7813 77.4445 55.5141 77.0689C55.2481 76.6942 54.8813 76.3632 54.4159 76.0745C53.9528 75.7858 53.3714 75.5599 52.6783 75.3928C51.9841 75.2257 51.187 75.1562 50.2804 75.1802C49.7581 75.1943 49.2457 75.2389 48.7421 75.3126C48.2384 75.387 47.761 75.4913 47.3088 75.6261C46.7055 75.1678 46.0223 74.7723 45.2602 74.4365C46.4011 73.9955 47.6154 73.7639 48.9216 73.7382C50.6067 73.7035 52.0706 73.9244 53.3407 74.4141C54.6097 74.9031 55.8492 75.4408 57.0612 76.0282C58.2733 76.6164 59.5248 77.1326 60.8102 77.5769C62.0957 78.022 63.5585 78.1684 65.1702 78.0071C66.5301 77.8697 67.4651 77.5545 67.9688 77.0788C68.4724 76.6023 68.6575 76.0679 68.5348 75.4813Z" fill="#FFCA0D"/>
<path fill-rule="evenodd" clip-rule="evenodd" d="M42.9518 57.9406C43.335 57.8074 43.7007 57.656 44.05 57.4864C44.4003 57.3168 44.7168 57.1282 44.9993 56.9214C45.2817 57.1282 45.5982 57.3168 45.9485 57.4864C46.2989 57.656 46.6646 57.8074 47.0467 57.9406C46.4084 58.3997 45.7274 58.7836 44.9993 59.0938C44.2722 58.7836 43.5901 58.3997 42.9518 57.9406ZM43.4675 53.2035C43.4653 53.0223 43.4894 52.8221 43.5419 52.6021C43.5945 52.3812 43.6744 52.181 43.7839 51.999C43.8912 51.8178 44.0478 51.6614 44.2503 51.5315C44.4529 51.4017 44.7036 51.3363 44.9993 51.3363C45.296 51.3363 45.5456 51.4017 45.7482 51.5315C45.9507 51.6614 46.1062 51.8178 46.2157 51.999C46.3241 52.181 46.4051 52.3812 46.4566 52.6021C46.5091 52.8221 46.5343 53.0223 46.5321 53.2035C46.5146 54.4709 45.9923 55.5257 44.9993 56.3787C44.0062 55.4992 43.4839 54.4453 43.4675 53.2035ZM21.4652 58.1656C21.556 58.6 21.8166 58.9482 22.2447 59.2121C22.6718 59.4761 23.125 59.5811 23.609 59.5282C23.7481 59.5125 23.9101 59.4885 24.0984 59.4554C24.1554 59.4446 24.2024 59.4339 24.2408 59.4223C24.4948 59.3735 24.682 59.2014 24.682 58.9946C24.682 58.7505 24.4203 58.5536 24.0973 58.5536C23.7743 58.5536 23.5137 58.7505 23.5137 58.9946C23.5137 59.1402 23.6068 59.2684 23.7502 59.3495C23.1491 59.3826 22.7068 59.2792 22.4221 59.0343C22.098 58.758 21.9009 58.4543 21.833 58.1218C21.7268 57.6113 21.8998 57.1389 22.3575 56.7079C22.8163 56.2769 23.6561 55.9931 24.8703 55.8707C26.3715 55.7201 27.7237 55.8757 28.9018 56.3265C30.0799 56.7782 31.269 57.2961 32.4647 57.8819C33.6592 58.4676 34.9337 58.9995 36.2881 59.4827C37.6436 59.9658 39.251 60.1784 41.1386 60.1404C41.789 60.128 42.4393 60.0469 43.0908 59.898C43.7423 59.7499 44.3773 59.5596 44.9993 59.3263C45.6212 59.5588 46.2573 59.7499 46.9088 59.898C47.5592 60.0469 48.2095 60.128 48.861 60.1404C50.1311 60.166 51.2687 60.0717 52.2826 59.8508C53.2987 59.6299 54.2305 59.3495 55.0801 59.0045C55.9309 58.6595 56.7488 58.2856 57.5349 57.8819C58.3211 57.4773 59.1029 57.11 59.8791 56.7782C60.6565 56.4465 61.4755 56.1867 62.335 56.0006C63.1935 55.8144 64.1274 55.7706 65.1282 55.8707C66.3435 55.9931 67.1822 56.2761 67.641 56.7079C68.0987 57.1389 68.2717 57.6113 68.1655 58.1218C68.0976 58.4543 67.9005 58.758 67.5775 59.0343C67.2972 59.2742 66.8669 59.3784 66.2844 59.3511C66.43 59.2709 66.5242 59.141 66.5242 58.9946C66.5242 58.7505 66.2625 58.5536 65.9406 58.5536C65.6176 58.5536 65.3559 58.7505 65.3559 58.9946C65.3559 59.165 65.484 59.3131 65.6712 59.3867C65.7129 59.4124 65.7884 59.4355 65.9001 59.4554C66.0884 59.4885 66.2516 59.5125 66.3895 59.5282C66.8746 59.5811 67.3279 59.4761 67.7549 59.2121C68.1819 58.9482 68.4425 58.5999 68.5345 58.1656C68.6582 57.5791 68.472 57.0446 67.9684 56.5681C67.4647 56.0924 66.5297 55.7772 65.1687 55.6399C63.5581 55.4786 62.0953 55.625 60.8098 56.0701C59.5233 56.5143 58.2718 57.0306 57.0597 57.6188C55.8477 58.2062 54.6082 58.7439 53.3392 59.2328C52.0702 59.7226 50.6052 59.9435 48.9212 59.9087C47.6139 59.8823 46.3997 59.6514 45.2588 59.2105C46.0208 58.8746 46.704 58.4792 47.3084 58.0208C47.7606 58.1557 48.238 58.2599 48.7417 58.3344C49.2453 58.408 49.7567 58.4527 50.28 58.4668C51.1866 58.4907 51.9837 58.4213 52.6768 58.2541C53.3721 58.087 53.9502 57.8612 54.4155 57.5724C54.8809 57.2837 55.2466 56.9528 55.5137 56.578C55.7798 56.2024 55.9309 55.8351 55.9659 55.4744C56.0075 55.036 55.8729 54.6521 55.5586 54.3245C55.2433 53.9977 55.0462 53.8322 54.9739 53.8289C54.9017 53.8256 54.8644 53.8372 54.8622 53.862C54.8579 53.9141 54.998 54.0829 55.2816 54.3692C55.5652 54.6554 55.6845 55.0186 55.644 55.4571C55.5718 56.2314 55.0374 56.875 54.0597 57.4004C53.0808 57.9249 51.7987 58.1573 50.1913 58.1143C49.1785 58.0879 48.3256 57.9695 47.6292 57.7536C48.3092 57.1935 48.8862 56.5582 49.3603 55.8442C49.8322 55.1303 50.1848 54.298 50.4114 53.3466C50.3775 53.2945 50.3227 53.2928 50.2483 53.3425C49.9121 54.317 49.4906 55.1543 48.9847 55.855C48.4778 56.5565 47.9227 57.1621 47.315 57.6717C46.9318 57.5385 46.5748 57.3863 46.2409 57.2167C45.908 57.0463 45.6004 56.8577 45.3179 56.65C46.381 55.7996 46.9438 54.643 46.9701 53.1688C46.9734 52.9355 46.9504 52.684 46.9 52.411C46.8497 52.1396 46.7522 51.874 46.6077 51.6143C46.4632 51.3545 46.2617 51.1394 46.0033 50.9698C45.7438 50.801 45.4098 50.7158 44.9993 50.7158C44.5898 50.7158 44.2547 50.801 43.9963 50.9698C43.7368 51.1394 43.5354 51.3545 43.3908 51.6143C43.2474 51.874 43.1499 52.1396 43.0996 52.411C43.0481 52.684 43.0251 52.9355 43.0284 53.1688C43.0547 54.643 43.6175 55.7996 44.6806 56.65C44.3981 56.8577 44.0905 57.0463 43.7576 57.2167C43.4259 57.3863 43.0667 57.5385 42.6835 57.6717C42.0758 57.1621 41.5196 56.5574 41.0138 55.855C40.509 55.1543 40.0864 54.317 39.7513 53.3425C39.7119 53.292 39.6572 53.2928 39.5871 53.3466C39.8137 54.298 40.1663 55.1303 40.6393 55.8442C41.1123 56.5582 41.6904 57.1935 42.3704 57.7536C41.6729 57.9695 40.8211 58.0879 39.8072 58.1143C38.1998 58.1573 36.9177 57.9249 35.9399 57.4004C34.9622 56.875 34.4268 56.2314 34.3545 55.4571C34.314 55.0186 34.4344 54.6554 34.7169 54.3692C35.0005 54.0829 35.1417 53.9141 35.1363 53.862C35.1341 53.8372 35.0968 53.8256 35.0246 53.8289C34.9523 53.8322 34.7563 53.9977 34.441 54.3245C34.1257 54.6521 33.991 55.036 34.0326 55.4744C34.0676 55.8351 34.2187 56.2024 34.4859 56.578C34.7519 56.9528 35.1187 57.2837 35.5841 57.5724C36.0472 57.8612 36.6286 58.087 37.3217 58.2541C38.0159 58.4213 38.813 58.4907 39.7196 58.4668C40.2419 58.4527 40.7543 58.408 41.2579 58.3344C41.7616 58.2599 42.239 58.1557 42.6912 58.0208C43.2945 58.4792 43.9777 58.8746 44.7398 59.2105C43.5989 59.6514 42.3846 59.8831 41.0784 59.9087C39.3933 59.9435 37.9294 59.7226 36.6593 59.2328C35.3903 58.7439 34.1508 58.2062 32.9388 57.6188C31.7267 57.0306 30.4752 56.5143 29.1898 56.0701C27.9043 55.625 26.4415 55.4786 24.8298 55.6399C23.4699 55.7772 22.5349 56.0924 22.0312 56.5681C21.5276 57.0446 21.3425 57.5791 21.4652 58.1656Z" fill="#FFCA0D"/>
<path fill-rule="evenodd" clip-rule="evenodd" d="M47.0482 36.4194C46.665 36.5526 46.2993 36.704 45.95 36.8736C45.5997 37.0432 45.2832 37.2318 45.0007 37.4386C44.7183 37.2318 44.4018 37.0432 44.0515 36.8736C43.7011 36.704 43.3354 36.5526 42.9533 36.4194C43.5916 35.9603 44.2726 35.5764 45.0007 35.2662C45.7278 35.5764 46.4099 35.9603 47.0482 36.4194ZM46.5325 41.1565C46.5347 41.3377 46.5106 41.5379 46.4581 41.7579C46.4055 41.9788 46.3256 42.179 46.2161 42.361C46.1088 42.5422 45.9522 42.6986 45.7497 42.8285C45.5471 42.9583 45.2964 43.0237 45.0007 43.0237C44.704 43.0237 44.4544 42.9583 44.2518 42.8285C44.0493 42.6986 43.8938 42.5422 43.7843 42.361C43.6759 42.179 43.5949 41.9788 43.5434 41.7579C43.4909 41.5379 43.4657 41.3377 43.4679 41.1565C43.4854 39.8891 44.0077 38.8343 45.0007 37.9813C45.9938 38.8608 46.5161 39.9147 46.5325 41.1565ZM68.5348 36.1944C68.444 35.76 68.1834 35.4118 67.7553 35.1479C67.3282 34.8839 66.875 34.7789 66.391 34.8318C66.2519 34.8475 66.0899 34.8715 65.9016 34.9046C65.8446 34.9154 65.7976 34.9261 65.7592 34.9377C65.5052 34.9865 65.318 35.1586 65.318 35.3654C65.318 35.6095 65.5797 35.8064 65.9027 35.8064C66.2257 35.8064 66.4863 35.6095 66.4863 35.3654C66.4863 35.2198 66.3932 35.0916 66.2498 35.0105C66.8509 34.9774 67.2932 35.0808 67.5779 35.3257C67.902 35.602 68.0991 35.9057 68.167 36.2382C68.2732 36.7487 68.1002 37.2211 67.6425 37.6521C67.1837 38.0831 66.3439 38.3669 65.1297 38.4893C63.6285 38.6399 62.2763 38.4843 61.0982 38.0335C59.9201 37.5818 58.731 37.0639 57.5353 36.4781C56.3408 35.8924 55.0663 35.3605 53.7119 34.8773C52.3564 34.3942 50.749 34.1816 48.8614 34.2196C48.211 34.232 47.5607 34.3131 46.9092 34.462C46.2577 34.6101 45.6227 34.8004 45.0007 35.0337C44.3788 34.8012 43.7427 34.6101 43.0912 34.462C42.4408 34.3131 41.7905 34.232 41.139 34.2196C39.8689 34.194 38.7313 34.2883 37.7174 34.5092C36.7013 34.7301 35.7695 35.0105 34.9199 35.3555C34.0691 35.7005 33.2512 36.0744 32.4651 36.4781C31.6789 36.8827 30.8971 37.25 30.1209 37.5818C29.3435 37.9135 28.5245 38.1733 27.665 38.3594C26.8065 38.5456 25.8726 38.5894 24.8718 38.4893C23.6565 38.3669 22.8178 38.0839 22.359 37.6521C21.9013 37.2211 21.7283 36.7487 21.8345 36.2382C21.9024 35.9057 22.0995 35.602 22.4225 35.3257C22.7028 35.0858 23.1331 34.9816 23.7156 35.0089C23.57 35.0891 23.4758 35.219 23.4758 35.3654C23.4758 35.6095 23.7375 35.8064 24.0594 35.8064C24.3824 35.8064 24.6441 35.6095 24.6441 35.3654C24.6441 35.195 24.516 35.0469 24.3288 34.9733C24.2871 34.9476 24.2116 34.9245 24.0999 34.9046C23.9116 34.8715 23.7484 34.8475 23.6105 34.8318C23.1254 34.7789 22.6721 34.8839 22.2451 35.1479C21.8181 35.4118 21.5575 35.76 21.4655 36.1944C21.3418 36.7809 21.528 37.3154 22.0316 37.7919C22.5353 38.2676 23.4703 38.5828 24.8313 38.7201C26.4419 38.8814 27.9047 38.735 29.1902 38.2899C30.4767 37.8457 31.7282 37.3294 32.9403 36.7412C34.1523 36.1538 35.3918 35.6161 36.6608 35.1272C37.9298 34.6374 39.3948 34.4165 41.0788 34.4513C42.3861 34.4777 43.6003 34.7086 44.7412 35.1495C43.9792 35.4854 43.296 35.8808 42.6916 36.3392C42.2394 36.2043 41.762 36.1001 41.2583 36.0256C40.7547 35.952 40.2433 35.9073 39.72 35.8932C38.8134 35.8693 38.0163 35.9387 37.3232 36.1059C36.6279 36.273 36.0498 36.4988 35.5845 36.7875C35.1191 37.0763 34.7534 37.4072 34.4863 37.782C34.2202 38.1575 34.0691 38.5249 34.0341 38.8856C33.9925 39.324 34.1271 39.7079 34.4414 40.0355C34.7567 40.3623 34.9538 40.5277 35.0261 40.5311C35.0983 40.5344 35.1356 40.5228 35.1378 40.498C35.1421 40.4458 35.002 40.2771 34.7184 39.9908C34.4348 39.7046 34.3155 39.3414 34.356 38.9029C34.4282 38.1286 34.9626 37.485 35.9403 36.9596C36.9192 36.4351 38.2013 36.2027 39.8087 36.2457C40.8215 36.2721 41.6744 36.3904 42.3708 36.6064C41.6908 37.1665 41.1138 37.8018 40.6397 38.5158C40.1678 39.2297 39.8152 40.062 39.5886 41.0134C39.6225 41.0655 39.6773 41.0671 39.7517 41.0175C40.0879 40.043 40.5094 39.2057 41.0153 38.505C41.5222 37.8035 42.0773 37.1979 42.685 36.6883C43.0682 36.8215 43.4252 36.9737 43.7591 37.1433C44.092 37.3137 44.3996 37.5023 44.6821 37.71C43.619 38.5604 43.0562 39.717 43.0299 41.1912C43.0266 41.4245 43.0496 41.676 43.1 41.949C43.1503 42.2204 43.2478 42.486 43.3923 42.7457C43.5368 43.0055 43.7383 43.2206 43.9967 43.3902C44.2562 43.559 44.5901 43.6442 45.0007 43.6442C45.4102 43.6442 45.7453 43.559 46.0037 43.3902C46.2632 43.2206 46.4646 43.0055 46.6092 42.7457C46.7526 42.486 46.8501 42.2204 46.9004 41.949C46.9519 41.676 46.9749 41.4245 46.9716 41.1912C46.9453 39.717 46.3825 38.5604 45.3194 37.71C45.6019 37.5023 45.9095 37.3137 46.2424 37.1433C46.5741 36.9737 46.9333 36.8215 47.3165 36.6883C47.9242 37.1979 48.4804 37.8026 48.9862 38.505C49.491 39.2057 49.9136 40.043 50.2487 41.0175C50.2881 41.068 50.3428 41.0671 50.4129 41.0134C50.1863 40.062 49.8337 39.2297 49.3607 38.5158C48.8877 37.8018 48.3096 37.1665 47.6296 36.6064C48.3271 36.3904 49.1789 36.2721 50.1928 36.2457C51.8002 36.2027 53.0823 36.4351 54.0601 36.9596C55.0378 37.485 55.5732 38.1286 55.6455 38.9029C55.686 39.3414 55.5656 39.7046 55.2831 39.9908C54.9995 40.2771 54.8583 40.4458 54.8637 40.498C54.8659 40.5228 54.9032 40.5344 54.9754 40.5311C55.0477 40.5277 55.2437 40.3623 55.559 40.0355C55.8743 39.7079 56.009 39.324 55.9674 38.8856C55.9324 38.5249 55.7813 38.1575 55.5141 37.782C55.2481 37.4072 54.8813 37.0763 54.4159 36.7875C53.9528 36.4988 53.3714 36.273 52.6783 36.1059C51.9841 35.9387 51.187 35.8693 50.2804 35.8932C49.7581 35.9073 49.2457 35.952 48.7421 36.0256C48.2384 36.1001 47.761 36.2043 47.3088 36.3392C46.7055 35.8808 46.0223 35.4854 45.2602 35.1495C46.4011 34.7086 47.6154 34.4769 48.9216 34.4513C50.6067 34.4165 52.0706 34.6374 53.3407 35.1272C54.6097 35.6161 55.8492 36.1538 57.0612 36.7412C58.2733 37.3294 59.5248 37.8457 60.8102 38.2899C62.0957 38.735 63.5585 38.8814 65.1702 38.7201C66.5301 38.5828 67.4651 38.2676 67.9688 37.7919C68.4724 37.3154 68.6575 36.7809 68.5348 36.1944Z" fill="#FFCA0D"/>
<path fill-rule="evenodd" clip-rule="evenodd" d="M42.9518 18.6536C43.335 18.5204 43.7007 18.3691 44.05 18.1995C44.4003 18.0299 44.7168 17.8412 44.9993 17.6344C45.2817 17.8412 45.5982 18.0299 45.9485 18.1995C46.2989 18.3691 46.6646 18.5204 47.0467 18.6536C46.4084 19.1128 45.7274 19.4967 44.9993 19.8069C44.2722 19.4967 43.5901 19.1128 42.9518 18.6536ZM43.4675 13.9165C43.4653 13.7354 43.4894 13.5352 43.5419 13.3151C43.5945 13.0942 43.6744 12.894 43.7839 12.712C43.8912 12.5308 44.0478 12.3745 44.2503 12.2446C44.4529 12.1147 44.7036 12.0493 44.9993 12.0493C45.296 12.0493 45.5456 12.1147 45.7482 12.2446C45.9507 12.3745 46.1062 12.5308 46.2157 12.712C46.3241 12.894 46.4051 13.0942 46.4566 13.3151C46.5091 13.5352 46.5343 13.7354 46.5321 13.9165C46.5146 15.184 45.9923 16.2388 44.9993 17.0917C44.0062 16.2123 43.4839 15.1583 43.4675 13.9165ZM21.4652 18.8787C21.556 19.313 21.8166 19.6613 22.2447 19.9252C22.6718 20.1891 23.125 20.2942 23.609 20.2412C23.7481 20.2255 23.9101 20.2015 24.0984 20.1684C24.1554 20.1577 24.2024 20.1469 24.2408 20.1353C24.4948 20.0865 24.682 19.9144 24.682 19.7076C24.682 19.4636 24.4203 19.2667 24.0973 19.2667C23.7743 19.2667 23.5137 19.4636 23.5137 19.7076C23.5137 19.8532 23.6068 19.9815 23.7502 20.0625C23.1491 20.0956 22.7068 19.9922 22.4221 19.7473C22.098 19.471 21.9009 19.1674 21.833 18.8348C21.7268 18.3244 21.8998 17.852 22.3575 17.421C22.8163 16.99 23.6561 16.7062 24.8703 16.5837C26.3715 16.4332 27.7237 16.5887 28.9018 17.0396C30.0799 17.4913 31.269 18.0092 32.4647 18.5949C33.6592 19.1806 34.9337 19.7126 36.2881 20.1957C37.6436 20.6789 39.251 20.8915 41.1386 20.8534C41.789 20.841 42.4393 20.7599 43.0908 20.611C43.7423 20.4629 44.3773 20.2727 44.9993 20.0394C45.6212 20.2718 46.2573 20.4629 46.9088 20.611C47.5592 20.7599 48.2095 20.841 48.861 20.8534C50.1311 20.8791 51.2687 20.7848 52.2826 20.5639C53.2987 20.343 54.2305 20.0625 55.0801 19.7175C55.9309 19.3726 56.7488 18.9986 57.5349 18.5949C58.3211 18.1904 59.1029 17.823 59.8791 17.4913C60.6565 17.1595 61.4755 16.8998 62.335 16.7136C63.1935 16.5275 64.1274 16.4836 65.1282 16.5837C66.3435 16.7062 67.1822 16.9891 67.641 17.421C68.0987 17.852 68.2717 18.3244 68.1655 18.8348C68.0976 19.1674 67.9005 19.471 67.5775 19.7473C67.2972 19.9872 66.8669 20.0915 66.2844 20.0642C66.43 19.9839 66.5242 19.854 66.5242 19.7076C66.5242 19.4636 66.2625 19.2667 65.9406 19.2667C65.6176 19.2667 65.3559 19.4636 65.3559 19.7076C65.3559 19.878 65.484 20.0261 65.6712 20.0998C65.7129 20.1254 65.7884 20.1486 65.9001 20.1684C66.0884 20.2015 66.2516 20.2255 66.3895 20.2412C66.8746 20.2942 67.3279 20.1891 67.7549 19.9252C68.1819 19.6613 68.4425 19.313 68.5345 18.8787C68.6582 18.2921 68.472 17.7577 67.9684 17.2812C67.4647 16.8055 66.5297 16.4903 65.1687 16.3529C63.5581 16.1916 62.0953 16.338 60.8098 16.7831C59.5233 17.2274 58.2718 17.7436 57.0597 18.3318C55.8477 18.9192 54.6082 19.4569 53.3392 19.9459C52.0702 20.4356 50.6052 20.6565 48.9212 20.6218C47.6139 20.5953 46.3997 20.3645 45.2588 19.9235C46.0208 19.5877 46.704 19.1922 47.3084 18.7339C47.7606 18.8687 48.238 18.973 48.7417 19.0474C49.2453 19.1211 49.7567 19.1657 50.28 19.1798C51.1866 19.2038 51.9837 19.1343 52.6768 18.9672C53.3721 18.8001 53.9502 18.5742 54.4155 18.2855C54.8809 17.9968 55.2466 17.6658 55.5137 17.2911C55.7798 16.9155 55.9309 16.5482 55.9659 16.1875C56.0075 15.749 55.8729 15.3651 55.5586 15.0375C55.2433 14.7108 55.0462 14.5453 54.9739 14.542C54.9017 14.5387 54.8644 14.5503 54.8622 14.5751C54.8579 14.6272 54.998 14.796 55.2816 15.0822C55.5652 15.3685 55.6845 15.7316 55.644 16.1701C55.5718 16.9444 55.0374 17.5881 54.0597 18.1134C53.0808 18.6379 51.7987 18.8704 50.1913 18.8274C49.1785 18.8009 48.3256 18.6826 47.6292 18.4667C48.3092 17.9066 48.8862 17.2712 49.3603 16.5573C49.8322 15.8433 50.1848 15.0111 50.4114 14.0597C50.3775 14.0076 50.3227 14.0059 50.2483 14.0555C49.9121 15.0301 49.4906 15.8673 48.9847 16.568C48.4778 17.2696 47.9227 17.8752 47.315 18.3848C46.9318 18.2516 46.5748 18.0994 46.2409 17.9298C45.908 17.7593 45.6004 17.5707 45.3179 17.3631C46.381 16.5126 46.9438 15.356 46.9701 13.8818C46.9734 13.6485 46.9504 13.397 46.9 13.124C46.8497 12.8526 46.7522 12.5871 46.6077 12.3273C46.4632 12.0675 46.2617 11.8524 46.0033 11.6829C45.7438 11.5141 45.4098 11.4289 44.9993 11.4289C44.5898 11.4289 44.2547 11.5141 43.9963 11.6829C43.7368 11.8524 43.5354 12.0675 43.3908 12.3273C43.2474 12.5871 43.1499 12.8526 43.0996 13.124C43.0481 13.397 43.0251 13.6485 43.0284 13.8818C43.0547 15.356 43.6175 16.5126 44.6806 17.3631C44.3981 17.5707 44.0905 17.7593 43.7576 17.9298C43.4259 18.0994 43.0667 18.2516 42.6835 18.3848C42.0758 17.8752 41.5196 17.2704 41.0138 16.568C40.509 15.8673 40.0864 15.0301 39.7513 14.0555C39.7119 14.0051 39.6572 14.0059 39.5871 14.0597C39.8137 15.0111 40.1663 15.8433 40.6393 16.5573C41.1123 17.2712 41.6904 17.9066 42.3704 18.4667C41.6729 18.6826 40.8211 18.8009 39.8072 18.8274C38.1998 18.8704 36.9177 18.6379 35.9399 18.1134C34.9622 17.5881 34.4268 16.9444 34.3545 16.1701C34.314 15.7316 34.4344 15.3685 34.7169 15.0822C35.0005 14.796 35.1417 14.6272 35.1363 14.5751C35.1341 14.5503 35.0968 14.5387 35.0246 14.542C34.9523 14.5453 34.7563 14.7108 34.441 15.0375C34.1257 15.3651 33.991 15.749 34.0326 16.1875C34.0676 16.5482 34.2187 16.9155 34.4859 17.2911C34.7519 17.6659 35.1187 17.9968 35.5841 18.2855C36.0472 18.5742 36.6286 18.8001 37.3217 18.9672C38.0159 19.1343 38.813 19.2038 39.7196 19.1798C40.2419 19.1657 40.7543 19.1211 41.2579 19.0474C41.7616 18.973 42.239 18.8687 42.6912 18.7339C43.2945 19.1922 43.9777 19.5877 44.7398 19.9235C43.5989 20.3645 42.3846 20.5961 41.0784 20.6218C39.3933 20.6565 37.9294 20.4356 36.6593 19.9459C35.3903 19.4569 34.1508 18.9192 32.9388 18.3318C31.7267 17.7436 30.4752 17.2274 29.1898 16.7831C27.9043 16.338 26.4415 16.1916 24.8298 16.3529C23.4699 16.4903 22.5349 16.8055 22.0312 17.2812C21.5276 17.7577 21.3425 18.2921 21.4652 18.8787Z" fill="#FFCA0D"/>
</g>
<g filter="url(#filter4_d)">
<rect x="18.5" y="4.5" width="61" height="85.36" rx="2.5" fill="#A23411" stroke="white" stroke-width="5"/>
<rect x="19.9286" y="5.9287" width="58.1429" height="82.5026" fill="#B8350C"/>
<path fill-rule="evenodd" clip-rule="evenodd" d="M51.0482 75.7064C50.665 75.8396 50.2993 75.9909 49.95 76.1605C49.5997 76.3301 49.2832 76.5188 49.0007 76.7256C48.7183 76.5188 48.4018 76.3301 48.0515 76.1605C47.7011 75.9909 47.3354 75.8396 46.9533 75.7064C47.5916 75.2472 48.2726 74.8633 49.0007 74.5531C49.7278 74.8633 50.4099 75.2472 51.0482 75.7064ZM50.5325 80.4435C50.5347 80.6246 50.5106 80.8248 50.4581 81.0449C50.4055 81.2658 50.3256 81.466 50.2161 81.648C50.1088 81.8292 49.9522 81.9855 49.7497 82.1154C49.5471 82.2453 49.2964 82.3107 49.0007 82.3107C48.704 82.3107 48.4544 82.2453 48.2518 82.1154C48.0493 81.9855 47.8938 81.8292 47.7843 81.648C47.6759 81.466 47.5949 81.2658 47.5434 81.0449C47.4909 80.8248 47.4657 80.6246 47.4679 80.4435C47.4854 79.176 48.0077 78.1212 49.0007 77.2683C49.9938 78.1477 50.5161 79.2017 50.5325 80.4435ZM72.5348 75.4813C72.444 75.047 72.1834 74.6987 71.7553 74.4348C71.3282 74.1709 70.875 74.0658 70.391 74.1188C70.2519 74.1345 70.0899 74.1585 69.9016 74.1916C69.8446 74.2023 69.7976 74.2131 69.7592 74.2247C69.5052 74.2735 69.318 74.4456 69.318 74.6524C69.318 74.8964 69.5797 75.0933 69.9027 75.0933C70.2257 75.0933 70.4863 74.8964 70.4863 74.6524C70.4863 74.5068 70.3932 74.3786 70.2498 74.2975C70.8509 74.2644 71.2932 74.3678 71.5779 74.6127C71.902 74.889 72.0991 75.1926 72.167 75.5252C72.2732 76.0356 72.1002 76.508 71.6425 76.939C71.1837 77.3701 70.3439 77.6538 69.1297 77.7763C67.6285 77.9268 66.2763 77.7713 65.0982 77.3204C63.9201 76.8687 62.731 76.3508 61.5353 75.7651C60.3408 75.1794 59.0663 74.6474 57.7119 74.1643C56.3564 73.6811 54.749 73.4685 52.8614 73.5066C52.211 73.519 51.5607 73.6001 50.9092 73.749C50.2577 73.8971 49.6227 74.0873 49.0007 74.3206C48.3788 74.0882 47.7427 73.8971 47.0912 73.749C46.4408 73.6001 45.7905 73.519 45.139 73.5066C43.8689 73.4809 42.7313 73.5752 41.7174 73.7961C40.7013 74.017 39.7695 74.2975 38.9199 74.6425C38.0691 74.9874 37.2512 75.3614 36.4651 75.7651C35.6789 76.1696 34.8971 76.537 34.1209 76.8687C33.3435 77.2005 32.5245 77.4602 31.665 77.6464C30.8065 77.8325 29.8726 77.8764 28.8718 77.7763C27.6565 77.6538 26.8178 77.3709 26.359 76.939C25.9013 76.508 25.7283 76.0356 25.8345 75.5252C25.9024 75.1926 26.0995 74.889 26.4225 74.6127C26.7028 74.3728 27.1331 74.2685 27.7156 74.2958C27.57 74.3761 27.4758 74.506 27.4758 74.6524C27.4758 74.8964 27.7375 75.0933 28.0594 75.0933C28.3824 75.0933 28.6441 74.8964 28.6441 74.6524C28.6441 74.482 28.516 74.3339 28.3288 74.2602C28.2871 74.2346 28.2116 74.2114 28.0999 74.1916C27.9116 74.1585 27.7484 74.1345 27.6105 74.1188C27.1254 74.0658 26.6721 74.1709 26.2451 74.4348C25.8181 74.6987 25.5575 75.047 25.4655 75.4813C25.3418 76.0679 25.528 76.6023 26.0316 77.0788C26.5353 77.5545 27.4703 77.8697 28.8313 78.0071C30.4419 78.1684 31.9047 78.022 33.1902 77.5769C34.4767 77.1326 35.7282 76.6164 36.9403 76.0282C38.1523 75.4408 39.3918 74.9031 40.6608 74.4141C41.9298 73.9244 43.3948 73.7035 45.0788 73.7382C46.3861 73.7647 47.6003 73.9955 48.7412 74.4365C47.9792 74.7723 47.296 75.1678 46.6916 75.6261C46.2394 75.4913 45.762 75.387 45.2583 75.3126C44.7547 75.2389 44.2433 75.1943 43.72 75.1802C42.8134 75.1562 42.0163 75.2257 41.3232 75.3928C40.6279 75.5599 40.0498 75.7858 39.5845 76.0745C39.1191 76.3632 38.7534 76.6942 38.4863 77.0689C38.2202 77.4445 38.0691 77.8118 38.0341 78.1725C37.9925 78.611 38.1271 78.9949 38.4414 79.3225C38.7567 79.6492 38.9538 79.8147 39.0261 79.818C39.0983 79.8213 39.1356 79.8097 39.1378 79.7849C39.1421 79.7328 39.002 79.564 38.7184 79.2778C38.4348 78.9915 38.3155 78.6284 38.356 78.1899C38.4282 77.4156 38.9626 76.7719 39.9403 76.2466C40.9192 75.7221 42.2013 75.4896 43.8087 75.5326C44.8215 75.5591 45.6744 75.6774 46.3708 75.8933C45.6908 76.4534 45.1138 77.0888 44.6397 77.8027C44.1678 78.5167 43.8152 79.3489 43.5886 80.3003C43.6225 80.3524 43.6773 80.3541 43.7517 80.3045C44.0879 79.3299 44.5094 78.4927 45.0153 77.792C45.5222 77.0904 46.0773 76.4848 46.685 75.9752C47.0682 76.1084 47.4252 76.2606 47.7591 76.4302C48.092 76.6007 48.3996 76.7893 48.6821 76.9969C47.619 77.8474 47.0562 79.004 47.0299 80.4782C47.0266 80.7115 47.0496 80.963 47.1 81.236C47.1503 81.5074 47.2478 81.7729 47.3923 82.0327C47.5368 82.2925 47.7383 82.5076 47.9967 82.6771C48.2562 82.8459 48.5901 82.9311 49.0007 82.9311C49.4102 82.9311 49.7453 82.8459 50.0037 82.6771C50.2632 82.5076 50.4646 82.2925 50.6092 82.0327C50.7526 81.7729 50.8501 81.5074 50.9004 81.236C50.9519 80.963 50.9749 80.7115 50.9716 80.4782C50.9453 79.004 50.3825 77.8474 49.3194 76.9969C49.6019 76.7893 49.9095 76.6007 50.2424 76.4302C50.5741 76.2606 50.9333 76.1084 51.3165 75.9752C51.9242 76.4848 52.4804 77.0896 52.9862 77.792C53.491 78.4927 53.9136 79.3299 54.2487 80.3045C54.2881 80.3549 54.3428 80.3541 54.4129 80.3003C54.1863 79.3489 53.8337 78.5167 53.3607 77.8027C52.8877 77.0888 52.3096 76.4534 51.6296 75.8933C52.3271 75.6774 53.1789 75.5591 54.1928 75.5326C55.8002 75.4896 57.0823 75.7221 58.0601 76.2466C59.0378 76.7719 59.5732 77.4156 59.6455 78.1899C59.686 78.6284 59.5656 78.9915 59.2831 79.2778C58.9995 79.564 58.8583 79.7328 58.8637 79.7849C58.8659 79.8097 58.9032 79.8213 58.9754 79.818C59.0477 79.8147 59.2437 79.6492 59.559 79.3225C59.8743 78.9949 60.009 78.611 59.9674 78.1725C59.9324 77.8118 59.7813 77.4445 59.5141 77.0689C59.2481 76.6942 58.8813 76.3632 58.4159 76.0745C57.9528 75.7858 57.3714 75.5599 56.6783 75.3928C55.9841 75.2257 55.187 75.1562 54.2804 75.1802C53.7581 75.1943 53.2457 75.2389 52.7421 75.3126C52.2384 75.387 51.761 75.4913 51.3088 75.6261C50.7055 75.1678 50.0223 74.7723 49.2602 74.4365C50.4011 73.9955 51.6154 73.7639 52.9216 73.7382C54.6067 73.7035 56.0706 73.9244 57.3407 74.4141C58.6097 74.9031 59.8492 75.4408 61.0612 76.0282C62.2733 76.6164 63.5248 77.1326 64.8102 77.5769C66.0957 78.022 67.5585 78.1684 69.1702 78.0071C70.5301 77.8697 71.4651 77.5545 71.9688 77.0788C72.4724 76.6023 72.6575 76.0679 72.5348 75.4813Z" fill="#FFCA0D"/>
<path fill-rule="evenodd" clip-rule="evenodd" d="M46.9518 57.9406C47.335 57.8074 47.7007 57.656 48.05 57.4864C48.4003 57.3168 48.7168 57.1282 48.9993 56.9214C49.2817 57.1282 49.5982 57.3168 49.9485 57.4864C50.2989 57.656 50.6646 57.8074 51.0467 57.9406C50.4084 58.3997 49.7274 58.7836 48.9993 59.0938C48.2722 58.7836 47.5901 58.3997 46.9518 57.9406ZM47.4675 53.2035C47.4653 53.0223 47.4894 52.8221 47.5419 52.6021C47.5945 52.3812 47.6744 52.181 47.7839 51.999C47.8912 51.8178 48.0478 51.6614 48.2503 51.5315C48.4529 51.4017 48.7036 51.3363 48.9993 51.3363C49.296 51.3363 49.5456 51.4017 49.7482 51.5315C49.9507 51.6614 50.1062 51.8178 50.2157 51.999C50.3241 52.181 50.4051 52.3812 50.4566 52.6021C50.5091 52.8221 50.5343 53.0223 50.5321 53.2035C50.5146 54.4709 49.9923 55.5257 48.9993 56.3787C48.0062 55.4992 47.4839 54.4453 47.4675 53.2035ZM25.4652 58.1656C25.556 58.6 25.8166 58.9482 26.2447 59.2121C26.6718 59.4761 27.125 59.5811 27.609 59.5282C27.7481 59.5125 27.9101 59.4885 28.0984 59.4554C28.1554 59.4446 28.2024 59.4339 28.2408 59.4223C28.4948 59.3735 28.682 59.2014 28.682 58.9946C28.682 58.7505 28.4203 58.5536 28.0973 58.5536C27.7743 58.5536 27.5137 58.7505 27.5137 58.9946C27.5137 59.1402 27.6068 59.2684 27.7502 59.3495C27.1491 59.3826 26.7068 59.2792 26.4221 59.0343C26.098 58.758 25.9009 58.4543 25.833 58.1218C25.7268 57.6113 25.8998 57.1389 26.3575 56.7079C26.8163 56.2769 27.6561 55.9931 28.8703 55.8707C30.3715 55.7201 31.7237 55.8757 32.9018 56.3265C34.0799 56.7782 35.269 57.2961 36.4647 57.8819C37.6592 58.4676 38.9337 58.9995 40.2881 59.4827C41.6436 59.9658 43.251 60.1784 45.1386 60.1404C45.789 60.128 46.4393 60.0469 47.0908 59.898C47.7423 59.7499 48.3773 59.5596 48.9993 59.3263C49.6212 59.5588 50.2573 59.7499 50.9088 59.898C51.5592 60.0469 52.2095 60.128 52.861 60.1404C54.1311 60.166 55.2687 60.0717 56.2826 59.8508C57.2987 59.6299 58.2305 59.3495 59.0801 59.0045C59.9309 58.6595 60.7488 58.2856 61.5349 57.8819C62.3211 57.4773 63.1029 57.11 63.8791 56.7782C64.6565 56.4465 65.4755 56.1867 66.335 56.0006C67.1935 55.8144 68.1274 55.7706 69.1282 55.8707C70.3435 55.9931 71.1822 56.2761 71.641 56.7079C72.0987 57.1389 72.2717 57.6113 72.1655 58.1218C72.0976 58.4543 71.9005 58.758 71.5775 59.0343C71.2972 59.2742 70.8669 59.3784 70.2844 59.3511C70.43 59.2709 70.5242 59.141 70.5242 58.9946C70.5242 58.7505 70.2625 58.5536 69.9406 58.5536C69.6176 58.5536 69.3559 58.7505 69.3559 58.9946C69.3559 59.165 69.484 59.3131 69.6712 59.3867C69.7129 59.4124 69.7884 59.4355 69.9001 59.4554C70.0884 59.4885 70.2516 59.5125 70.3895 59.5282C70.8746 59.5811 71.3279 59.4761 71.7549 59.2121C72.1819 58.9482 72.4425 58.5999 72.5345 58.1656C72.6582 57.5791 72.472 57.0446 71.9684 56.5681C71.4647 56.0924 70.5297 55.7772 69.1687 55.6399C67.5581 55.4786 66.0953 55.625 64.8098 56.0701C63.5233 56.5143 62.2718 57.0306 61.0597 57.6188C59.8477 58.2062 58.6082 58.7439 57.3392 59.2328C56.0702 59.7226 54.6052 59.9435 52.9212 59.9087C51.6139 59.8823 50.3997 59.6514 49.2588 59.2105C50.0208 58.8746 50.704 58.4792 51.3084 58.0208C51.7606 58.1557 52.238 58.2599 52.7417 58.3344C53.2453 58.408 53.7567 58.4527 54.28 58.4668C55.1866 58.4907 55.9837 58.4213 56.6768 58.2541C57.3721 58.087 57.9502 57.8612 58.4155 57.5724C58.8809 57.2837 59.2466 56.9528 59.5137 56.578C59.7798 56.2024 59.9309 55.8351 59.9659 55.4744C60.0075 55.036 59.8729 54.6521 59.5586 54.3245C59.2433 53.9977 59.0462 53.8322 58.9739 53.8289C58.9017 53.8256 58.8644 53.8372 58.8622 53.862C58.8579 53.9141 58.998 54.0829 59.2816 54.3692C59.5652 54.6554 59.6845 55.0186 59.644 55.4571C59.5718 56.2314 59.0374 56.875 58.0597 57.4004C57.0808 57.9249 55.7987 58.1573 54.1913 58.1143C53.1785 58.0879 52.3256 57.9695 51.6292 57.7536C52.3092 57.1935 52.8862 56.5582 53.3603 55.8442C53.8322 55.1303 54.1848 54.298 54.4114 53.3466C54.3775 53.2945 54.3227 53.2928 54.2483 53.3425C53.9121 54.317 53.4906 55.1543 52.9847 55.855C52.4778 56.5565 51.9227 57.1621 51.315 57.6717C50.9318 57.5385 50.5748 57.3863 50.2409 57.2167C49.908 57.0463 49.6004 56.8577 49.3179 56.65C50.381 55.7996 50.9438 54.643 50.9701 53.1688C50.9734 52.9355 50.9504 52.684 50.9 52.411C50.8497 52.1396 50.7522 51.874 50.6077 51.6143C50.4632 51.3545 50.2617 51.1394 50.0033 50.9698C49.7438 50.801 49.4098 50.7158 48.9993 50.7158C48.5898 50.7158 48.2547 50.801 47.9963 50.9698C47.7368 51.1394 47.5354 51.3545 47.3908 51.6143C47.2474 51.874 47.1499 52.1396 47.0996 52.411C47.0481 52.684 47.0251 52.9355 47.0284 53.1688C47.0547 54.643 47.6175 55.7996 48.6806 56.65C48.3981 56.8577 48.0905 57.0463 47.7576 57.2167C47.4259 57.3863 47.0667 57.5385 46.6835 57.6717C46.0758 57.1621 45.5196 56.5574 45.0138 55.855C44.509 55.1543 44.0864 54.317 43.7513 53.3425C43.7119 53.292 43.6572 53.2928 43.5871 53.3466C43.8137 54.298 44.1663 55.1303 44.6393 55.8442C45.1123 56.5582 45.6904 57.1935 46.3704 57.7536C45.6729 57.9695 44.8211 58.0879 43.8072 58.1143C42.1998 58.1573 40.9177 57.9249 39.9399 57.4004C38.9622 56.875 38.4268 56.2314 38.3545 55.4571C38.314 55.0186 38.4344 54.6554 38.7169 54.3692C39.0005 54.0829 39.1417 53.9141 39.1363 53.862C39.1341 53.8372 39.0968 53.8256 39.0246 53.8289C38.9523 53.8322 38.7563 53.9977 38.441 54.3245C38.1257 54.6521 37.991 55.036 38.0326 55.4744C38.0676 55.8351 38.2187 56.2024 38.4859 56.578C38.7519 56.9528 39.1187 57.2837 39.5841 57.5724C40.0472 57.8612 40.6286 58.087 41.3217 58.2541C42.0159 58.4213 42.813 58.4907 43.7196 58.4668C44.2419 58.4527 44.7543 58.408 45.2579 58.3344C45.7616 58.2599 46.239 58.1557 46.6912 58.0208C47.2945 58.4792 47.9777 58.8746 48.7398 59.2105C47.5989 59.6514 46.3846 59.8831 45.0784 59.9087C43.3933 59.9435 41.9294 59.7226 40.6593 59.2328C39.3903 58.7439 38.1508 58.2062 36.9388 57.6188C35.7267 57.0306 34.4752 56.5143 33.1898 56.0701C31.9043 55.625 30.4415 55.4786 28.8298 55.6399C27.4699 55.7772 26.5349 56.0924 26.0312 56.5681C25.5276 57.0446 25.3425 57.5791 25.4652 58.1656Z" fill="#FFCA0D"/>
<path fill-rule="evenodd" clip-rule="evenodd" d="M51.0482 36.4194C50.665 36.5526 50.2993 36.704 49.95 36.8736C49.5997 37.0432 49.2832 37.2318 49.0007 37.4386C48.7183 37.2318 48.4018 37.0432 48.0515 36.8736C47.7011 36.704 47.3354 36.5526 46.9533 36.4194C47.5916 35.9603 48.2726 35.5764 49.0007 35.2662C49.7278 35.5764 50.4099 35.9603 51.0482 36.4194ZM50.5325 41.1565C50.5347 41.3377 50.5106 41.5379 50.4581 41.7579C50.4055 41.9788 50.3256 42.179 50.2161 42.361C50.1088 42.5422 49.9522 42.6986 49.7497 42.8285C49.5471 42.9583 49.2964 43.0237 49.0007 43.0237C48.704 43.0237 48.4544 42.9583 48.2518 42.8285C48.0493 42.6986 47.8938 42.5422 47.7843 42.361C47.6759 42.179 47.5949 41.9788 47.5434 41.7579C47.4909 41.5379 47.4657 41.3377 47.4679 41.1565C47.4854 39.8891 48.0077 38.8343 49.0007 37.9813C49.9938 38.8608 50.5161 39.9147 50.5325 41.1565ZM72.5348 36.1944C72.444 35.76 72.1834 35.4118 71.7553 35.1479C71.3282 34.8839 70.875 34.7789 70.391 34.8318C70.2519 34.8475 70.0899 34.8715 69.9016 34.9046C69.8446 34.9154 69.7976 34.9261 69.7592 34.9377C69.5052 34.9865 69.318 35.1586 69.318 35.3654C69.318 35.6095 69.5797 35.8064 69.9027 35.8064C70.2257 35.8064 70.4863 35.6095 70.4863 35.3654C70.4863 35.2198 70.3932 35.0916 70.2498 35.0105C70.8509 34.9774 71.2932 35.0808 71.5779 35.3257C71.902 35.602 72.0991 35.9057 72.167 36.2382C72.2732 36.7487 72.1002 37.2211 71.6425 37.6521C71.1837 38.0831 70.3439 38.3669 69.1297 38.4893C67.6285 38.6399 66.2763 38.4843 65.0982 38.0335C63.9201 37.5818 62.731 37.0639 61.5353 36.4781C60.3408 35.8924 59.0663 35.3605 57.7119 34.8773C56.3564 34.3942 54.749 34.1816 52.8614 34.2196C52.211 34.232 51.5607 34.3131 50.9092 34.462C50.2577 34.6101 49.6227 34.8004 49.0007 35.0337C48.3788 34.8012 47.7427 34.6101 47.0912 34.462C46.4408 34.3131 45.7905 34.232 45.139 34.2196C43.8689 34.194 42.7313 34.2883 41.7174 34.5092C40.7013 34.7301 39.7695 35.0105 38.9199 35.3555C38.0691 35.7005 37.2512 36.0744 36.4651 36.4781C35.6789 36.8827 34.8971 37.25 34.1209 37.5818C33.3435 37.9135 32.5245 38.1733 31.665 38.3594C30.8065 38.5456 29.8726 38.5894 28.8718 38.4893C27.6565 38.3669 26.8178 38.0839 26.359 37.6521C25.9013 37.2211 25.7283 36.7487 25.8345 36.2382C25.9024 35.9057 26.0995 35.602 26.4225 35.3257C26.7028 35.0858 27.1331 34.9816 27.7156 35.0089C27.57 35.0891 27.4758 35.219 27.4758 35.3654C27.4758 35.6095 27.7375 35.8064 28.0594 35.8064C28.3824 35.8064 28.6441 35.6095 28.6441 35.3654C28.6441 35.195 28.516 35.0469 28.3288 34.9733C28.2871 34.9476 28.2116 34.9245 28.0999 34.9046C27.9116 34.8715 27.7484 34.8475 27.6105 34.8318C27.1254 34.7789 26.6721 34.8839 26.2451 35.1479C25.8181 35.4118 25.5575 35.76 25.4655 36.1944C25.3418 36.7809 25.528 37.3154 26.0316 37.7919C26.5353 38.2676 27.4703 38.5828 28.8313 38.7201C30.4419 38.8814 31.9047 38.735 33.1902 38.2899C34.4767 37.8457 35.7282 37.3294 36.9403 36.7412C38.1523 36.1538 39.3918 35.6161 40.6608 35.1272C41.9298 34.6374 43.3948 34.4165 45.0788 34.4513C46.3861 34.4777 47.6003 34.7086 48.7412 35.1495C47.9792 35.4854 47.296 35.8808 46.6916 36.3392C46.2394 36.2043 45.762 36.1001 45.2583 36.0256C44.7547 35.952 44.2433 35.9073 43.72 35.8932C42.8134 35.8693 42.0163 35.9387 41.3232 36.1059C40.6279 36.273 40.0498 36.4988 39.5845 36.7875C39.1191 37.0763 38.7534 37.4072 38.4863 37.782C38.2202 38.1575 38.0691 38.5249 38.0341 38.8856C37.9925 39.324 38.1271 39.7079 38.4414 40.0355C38.7567 40.3623 38.9538 40.5277 39.0261 40.5311C39.0983 40.5344 39.1356 40.5228 39.1378 40.498C39.1421 40.4458 39.002 40.2771 38.7184 39.9908C38.4348 39.7046 38.3155 39.3414 38.356 38.9029C38.4282 38.1286 38.9626 37.485 39.9403 36.9596C40.9192 36.4351 42.2013 36.2027 43.8087 36.2457C44.8215 36.2721 45.6744 36.3904 46.3708 36.6064C45.6908 37.1665 45.1138 37.8018 44.6397 38.5158C44.1678 39.2297 43.8152 40.062 43.5886 41.0134C43.6225 41.0655 43.6773 41.0671 43.7517 41.0175C44.0879 40.043 44.5094 39.2057 45.0153 38.505C45.5222 37.8035 46.0773 37.1979 46.685 36.6883C47.0682 36.8215 47.4252 36.9737 47.7591 37.1433C48.092 37.3137 48.3996 37.5023 48.6821 37.71C47.619 38.5604 47.0562 39.717 47.0299 41.1912C47.0266 41.4245 47.0496 41.676 47.1 41.949C47.1503 42.2204 47.2478 42.486 47.3923 42.7457C47.5368 43.0055 47.7383 43.2206 47.9967 43.3902C48.2562 43.559 48.5901 43.6442 49.0007 43.6442C49.4102 43.6442 49.7453 43.559 50.0037 43.3902C50.2632 43.2206 50.4646 43.0055 50.6092 42.7457C50.7526 42.486 50.8501 42.2204 50.9004 41.949C50.9519 41.676 50.9749 41.4245 50.9716 41.1912C50.9453 39.717 50.3825 38.5604 49.3194 37.71C49.6019 37.5023 49.9095 37.3137 50.2424 37.1433C50.5741 36.9737 50.9333 36.8215 51.3165 36.6883C51.9242 37.1979 52.4804 37.8026 52.9862 38.505C53.491 39.2057 53.9136 40.043 54.2487 41.0175C54.2881 41.068 54.3428 41.0671 54.4129 41.0134C54.1863 40.062 53.8337 39.2297 53.3607 38.5158C52.8877 37.8018 52.3096 37.1665 51.6296 36.6064C52.3271 36.3904 53.1789 36.2721 54.1928 36.2457C55.8002 36.2027 57.0823 36.4351 58.0601 36.9596C59.0378 37.485 59.5732 38.1286 59.6455 38.9029C59.686 39.3414 59.5656 39.7046 59.2831 39.9908C58.9995 40.2771 58.8583 40.4458 58.8637 40.498C58.8659 40.5228 58.9032 40.5344 58.9754 40.5311C59.0477 40.5277 59.2437 40.3623 59.559 40.0355C59.8743 39.7079 60.009 39.324 59.9674 38.8856C59.9324 38.5249 59.7813 38.1575 59.5141 37.782C59.2481 37.4072 58.8813 37.0763 58.4159 36.7875C57.9528 36.4988 57.3714 36.273 56.6783 36.1059C55.9841 35.9387 55.187 35.8693 54.2804 35.8932C53.7581 35.9073 53.2457 35.952 52.7421 36.0256C52.2384 36.1001 51.761 36.2043 51.3088 36.3392C50.7055 35.8808 50.0223 35.4854 49.2602 35.1495C50.4011 34.7086 51.6154 34.4769 52.9216 34.4513C54.6067 34.4165 56.0706 34.6374 57.3407 35.1272C58.6097 35.6161 59.8492 36.1538 61.0612 36.7412C62.2733 37.3294 63.5248 37.8457 64.8102 38.2899C66.0957 38.735 67.5585 38.8814 69.1702 38.7201C70.5301 38.5828 71.4651 38.2676 71.9688 37.7919C72.4724 37.3154 72.6575 36.7809 72.5348 36.1944Z" fill="#FFCA0D"/>
<path fill-rule="evenodd" clip-rule="evenodd" d="M46.9518 18.6536C47.335 18.5204 47.7007 18.3691 48.05 18.1995C48.4003 18.0299 48.7168 17.8412 48.9993 17.6344C49.2817 17.8412 49.5982 18.0299 49.9485 18.1995C50.2989 18.3691 50.6646 18.5204 51.0467 18.6536C50.4084 19.1128 49.7274 19.4967 48.9993 19.8069C48.2722 19.4967 47.5901 19.1128 46.9518 18.6536ZM47.4675 13.9165C47.4653 13.7354 47.4894 13.5352 47.5419 13.3151C47.5945 13.0942 47.6744 12.894 47.7839 12.712C47.8912 12.5308 48.0478 12.3745 48.2503 12.2446C48.4529 12.1147 48.7036 12.0493 48.9993 12.0493C49.296 12.0493 49.5456 12.1147 49.7482 12.2446C49.9507 12.3745 50.1062 12.5308 50.2157 12.712C50.3241 12.894 50.4051 13.0942 50.4566 13.3151C50.5091 13.5352 50.5343 13.7354 50.5321 13.9165C50.5146 15.184 49.9923 16.2388 48.9993 17.0917C48.0062 16.2123 47.4839 15.1583 47.4675 13.9165ZM25.4652 18.8787C25.556 19.313 25.8166 19.6613 26.2447 19.9252C26.6718 20.1891 27.125 20.2942 27.609 20.2412C27.7481 20.2255 27.9101 20.2015 28.0984 20.1684C28.1554 20.1577 28.2024 20.1469 28.2408 20.1353C28.4948 20.0865 28.682 19.9144 28.682 19.7076C28.682 19.4636 28.4203 19.2667 28.0973 19.2667C27.7743 19.2667 27.5137 19.4636 27.5137 19.7076C27.5137 19.8532 27.6068 19.9815 27.7502 20.0625C27.1491 20.0956 26.7068 19.9922 26.4221 19.7473C26.098 19.471 25.9009 19.1674 25.833 18.8348C25.7268 18.3244 25.8998 17.852 26.3575 17.421C26.8163 16.99 27.6561 16.7062 28.8703 16.5837C30.3715 16.4332 31.7237 16.5887 32.9018 17.0396C34.0799 17.4913 35.269 18.0092 36.4647 18.5949C37.6592 19.1806 38.9337 19.7126 40.2881 20.1957C41.6436 20.6789 43.251 20.8915 45.1386 20.8534C45.789 20.841 46.4393 20.7599 47.0908 20.611C47.7423 20.4629 48.3773 20.2727 48.9993 20.0394C49.6212 20.2718 50.2573 20.4629 50.9088 20.611C51.5592 20.7599 52.2095 20.841 52.861 20.8534C54.1311 20.8791 55.2687 20.7848 56.2826 20.5639C57.2987 20.343 58.2305 20.0625 59.0801 19.7175C59.9309 19.3726 60.7488 18.9986 61.5349 18.5949C62.3211 18.1904 63.1029 17.823 63.8791 17.4913C64.6565 17.1595 65.4755 16.8998 66.335 16.7136C67.1935 16.5275 68.1274 16.4836 69.1282 16.5837C70.3435 16.7062 71.1822 16.9891 71.641 17.421C72.0987 17.852 72.2717 18.3244 72.1655 18.8348C72.0976 19.1674 71.9005 19.471 71.5775 19.7473C71.2972 19.9872 70.8669 20.0915 70.2844 20.0642C70.43 19.9839 70.5242 19.854 70.5242 19.7076C70.5242 19.4636 70.2625 19.2667 69.9406 19.2667C69.6176 19.2667 69.3559 19.4636 69.3559 19.7076C69.3559 19.878 69.484 20.0261 69.6712 20.0998C69.7129 20.1254 69.7884 20.1486 69.9001 20.1684C70.0884 20.2015 70.2516 20.2255 70.3895 20.2412C70.8746 20.2942 71.3279 20.1891 71.7549 19.9252C72.1819 19.6613 72.4425 19.313 72.5345 18.8787C72.6582 18.2921 72.472 17.7577 71.9684 17.2812C71.4647 16.8055 70.5297 16.4903 69.1687 16.3529C67.5581 16.1916 66.0953 16.338 64.8098 16.7831C63.5233 17.2274 62.2718 17.7436 61.0597 18.3318C59.8477 18.9192 58.6082 19.4569 57.3392 19.9459C56.0702 20.4356 54.6052 20.6565 52.9212 20.6218C51.6139 20.5953 50.3997 20.3645 49.2588 19.9235C50.0208 19.5877 50.704 19.1922 51.3084 18.7339C51.7606 18.8687 52.238 18.973 52.7417 19.0474C53.2453 19.1211 53.7567 19.1657 54.28 19.1798C55.1866 19.2038 55.9837 19.1343 56.6768 18.9672C57.3721 18.8001 57.9502 18.5742 58.4155 18.2855C58.8809 17.9968 59.2466 17.6658 59.5137 17.2911C59.7798 16.9155 59.9309 16.5482 59.9659 16.1875C60.0075 15.749 59.8729 15.3651 59.5586 15.0375C59.2433 14.7108 59.0462 14.5453 58.9739 14.542C58.9017 14.5387 58.8644 14.5503 58.8622 14.5751C58.8579 14.6272 58.998 14.796 59.2816 15.0822C59.5652 15.3685 59.6845 15.7316 59.644 16.1701C59.5718 16.9444 59.0374 17.5881 58.0597 18.1134C57.0808 18.6379 55.7987 18.8704 54.1913 18.8274C53.1785 18.8009 52.3256 18.6826 51.6292 18.4667C52.3092 17.9066 52.8862 17.2712 53.3603 16.5573C53.8322 15.8433 54.1848 15.0111 54.4114 14.0597C54.3775 14.0076 54.3227 14.0059 54.2483 14.0555C53.9121 15.0301 53.4906 15.8673 52.9847 16.568C52.4778 17.2696 51.9227 17.8752 51.315 18.3848C50.9318 18.2516 50.5748 18.0994 50.2409 17.9298C49.908 17.7593 49.6004 17.5707 49.3179 17.3631C50.381 16.5126 50.9438 15.356 50.9701 13.8818C50.9734 13.6485 50.9504 13.397 50.9 13.124C50.8497 12.8526 50.7522 12.5871 50.6077 12.3273C50.4632 12.0675 50.2617 11.8524 50.0033 11.6829C49.7438 11.5141 49.4098 11.4289 48.9993 11.4289C48.5898 11.4289 48.2547 11.5141 47.9963 11.6829C47.7368 11.8524 47.5354 12.0675 47.3908 12.3273C47.2474 12.5871 47.1499 12.8526 47.0996 13.124C47.0481 13.397 47.0251 13.6485 47.0284 13.8818C47.0547 15.356 47.6175 16.5126 48.6806 17.3631C48.3981 17.5707 48.0905 17.7593 47.7576 17.9298C47.4259 18.0994 47.0667 18.2516 46.6835 18.3848C46.0758 17.8752 45.5196 17.2704 45.0138 16.568C44.509 15.8673 44.0864 15.0301 43.7513 14.0555C43.7119 14.0051 43.6572 14.0059 43.5871 14.0597C43.8137 15.0111 44.1663 15.8433 44.6393 16.5573C45.1123 17.2712 45.6904 17.9066 46.3704 18.4667C45.6729 18.6826 44.8211 18.8009 43.8072 18.8274C42.1998 18.8704 40.9177 18.6379 39.9399 18.1134C38.9622 17.5881 38.4268 16.9444 38.3545 16.1701C38.314 15.7316 38.4344 15.3685 38.7169 15.0822C39.0005 14.796 39.1417 14.6272 39.1363 14.5751C39.1341 14.5503 39.0968 14.5387 39.0246 14.542C38.9523 14.5453 38.7563 14.7108 38.441 15.0375C38.1257 15.3651 37.991 15.749 38.0326 16.1875C38.0676 16.5482 38.2187 16.9155 38.4859 17.2911C38.7519 17.6659 39.1187 17.9968 39.5841 18.2855C40.0472 18.5742 40.6286 18.8001 41.3217 18.9672C42.0159 19.1343 42.813 19.2038 43.7196 19.1798C44.2419 19.1657 44.7543 19.1211 45.2579 19.0474C45.7616 18.973 46.239 18.8687 46.6912 18.7339C47.2945 19.1922 47.9777 19.5877 48.7398 19.9235C47.5989 20.3645 46.3846 20.5961 45.0784 20.6218C43.3933 20.6565 41.9294 20.4356 40.6593 19.9459C39.3903 19.4569 38.1508 18.9192 36.9388 18.3318C35.7267 17.7436 34.4752 17.2274 33.1898 16.7831C31.9043 16.338 30.4415 16.1916 28.8298 16.3529C27.4699 16.4903 26.5349 16.8055 26.0312 17.2812C25.5276 17.7577 25.3425 18.2921 25.4652 18.8787Z" fill="#FFCA0D"/>
</g>
</g>
<defs>
<filter id="filter0_d" x="0" y="0" width="86" height="98.36" filterUnits="userSpaceOnUse" color-interpolation-filters="sRGB">
<feFlood flood-opacity="0" result="BackgroundImageFix"/>
<feColorMatrix in="SourceAlpha" type="matrix" values="0 0 0 0 0 0 0 0 0 0 0 0 0 0 0 0 0 0 127 0" result="hardAlpha"/>
<feOffset dy="2"/>
<feGaussianBlur stdDeviation="2"/>
<feComposite in2="hardAlpha" operator="out"/>
<feColorMatrix type="matrix" values="0 0 0 0 0 0 0 0 0 0 0 0 0 0 0 0 0 0 0.25 0"/>
<feBlend mode="normal" in2="BackgroundImageFix" result="effect1_dropShadow"/>
<feBlend mode="normal" in="SourceGraphic" in2="effect1_dropShadow" result="shape"/>
</filter>
<filter id="filter1_d" x="3" y="2" width="68" height="93.36" filterUnits="userSpaceOnUse" color-interpolation-filters="sRGB">
<feFlood flood-opacity="0" result="BackgroundImageFix"/>
<feColorMatrix in="SourceAlpha" type="matrix" values="0 0 0 0 0 0 0 0 0 0 0 0 0 0 0 0 0 0 127 0" result="hardAlpha"/>
<feOffset dy="2"/>
<feGaussianBlur stdDeviation="0.5"/>
<feComposite in2="hardAlpha" operator="out"/>
<feColorMatrix type="matrix" values="0 0 0 0 0 0 0 0 0 0 0 0 0 0 0 0 0 0 0.25 0"/>
<feBlend mode="normal" in2="BackgroundImageFix" result="effect1_dropShadow"/>
<feBlend mode="normal" in="SourceGraphic" in2="effect1_dropShadow" result="shape"/>
</filter>
<filter id="filter2_d" x="6.5" y="1" width="68" height="92.36" filterUnits="userSpaceOnUse" color-interpolation-filters="sRGB">
<feFlood flood-opacity="0" result="BackgroundImageFix"/>
<feColorMatrix in="SourceAlpha" type="matrix" values="0 0 0 0 0 0 0 0 0 0 0 0 0 0 0 0 0 0 127 0" result="hardAlpha"/>
<feOffset dx="-0.5"/>
<feGaussianBlur stdDeviation="0.5"/>
<feComposite in2="hardAlpha" operator="out"/>
<feColorMatrix type="matrix" values="0 0 0 0 0 0 0 0 0 0 0 0 0 0 0 0 0 0 0.25 0"/>
<feBlend mode="normal" in2="BackgroundImageFix" result="effect1_dropShadow"/>
<feBlend mode="normal" in="SourceGraphic" in2="effect1_dropShadow" result="shape"/>
</filter>
<filter id="filter3_d" x="10.5" y="1" width="68" height="92.36" filterUnits="userSpaceOnUse" color-interpolation-filters="sRGB">
<feFlood flood-opacity="0" result="BackgroundImageFix"/>
<feColorMatrix in="SourceAlpha" type="matrix" values="0 0 0 0 0 0 0 0 0 0 0 0 0 0 0 0 0 0 127 0" result="hardAlpha"/>
<feOffset dx="-0.5"/>
<feGaussianBlur stdDeviation="0.5"/>
<feComposite in2="hardAlpha" operator="out"/>
<feColorMatrix type="matrix" values="0 0 0 0 0 0 0 0 0 0 0 0 0 0 0 0 0 0 0.25 0"/>
<feBlend mode="normal" in2="BackgroundImageFix" result="effect1_dropShadow"/>
<feBlend mode="normal" in="SourceGraphic" in2="effect1_dropShadow" result="shape"/>
</filter>
<filter id="filter4_d" x="14.5" y="2" width="68" height="93.36" filterUnits="userSpaceOnUse" color-interpolation-filters="sRGB">
<feFlood flood-opacity="0" result="BackgroundImageFix"/>
<feColorMatrix in="SourceAlpha" type="matrix" values="0 0 0 0 0 0 0 0 0 0 0 0 0 0 0 0 0 0 127 0" result="hardAlpha"/>
<feOffset dx="-0.5" dy="2"/>
<feGaussianBlur stdDeviation="0.5"/>
<feComposite in2="hardAlpha" operator="out"/>
<feColorMatrix type="matrix" values="0 0 0 0 0 0 0 0 0 0 0 0 0 0 0 0 0 0 0.25 0"/>
<feBlend mode="normal" in2="BackgroundImageFix" result="effect1_dropShadow"/>
<feBlend mode="normal" in="SourceGraphic" in2="effect1_dropShadow" result="shape"/>
</filter>
</defs>
</svg>
